<svg width="1584" height="396" viewBox="0 0 1584 396" fill="none" xmlns="http://www.w3.org/2000/svg">
<g clip-path="url(#clip0_120_46)">
<rect width="1584" height="396" fill="black"/>
<path d="M1203.8 76.6C1203.29 76.6 1202.87 76.4467 1202.54 76.14C1202.22 75.82 1202.06 75.4267 1202.06 74.96C1202.06 74.4933 1202.22 74.1067 1202.54 73.8C1202.87 73.48 1203.29 73.32 1203.8 73.32C1204.29 73.32 1204.7 73.48 1205.02 73.8C1205.34 74.1067 1205.5 74.4933 1205.5 74.96C1205.5 75.4267 1205.34 75.82 1205.02 76.14C1204.7 76.4467 1204.29 76.6 1203.8 76.6ZM1205.18 90.82C1205.18 92.0467 1204.87 92.9267 1204.26 93.46C1203.66 94.0067 1202.79 94.28 1201.66 94.28H1200.42V91.9H1201.22C1201.65 91.9 1201.95 91.8133 1202.12 91.64C1202.29 91.48 1202.38 91.2133 1202.38 90.84V77.92H1205.18V90.82ZM1214.19 77.76C1215.03 77.76 1215.77 77.9467 1216.43 78.32C1217.08 78.68 1217.59 79.22 1217.95 79.94C1218.32 80.6467 1218.51 81.5 1218.51 82.5V89H1215.71V82.88C1215.71 82 1215.49 81.3267 1215.05 80.86C1214.61 80.38 1214.01 80.14 1213.25 80.14C1212.47 80.14 1211.86 80.38 1211.41 80.86C1210.97 81.3267 1210.75 82 1210.75 82.88V89H1207.95V74.2H1210.75V79.3C1211.11 78.82 1211.59 78.4467 1212.19 78.18C1212.79 77.9 1213.45 77.76 1214.19 77.76ZM1226.09 89.18C1225.02 89.18 1224.06 88.9467 1223.21 88.48C1222.36 88 1221.68 87.3267 1221.19 86.46C1220.71 85.5933 1220.47 84.5933 1220.47 83.46C1220.47 82.3267 1220.72 81.3267 1221.21 80.46C1221.72 79.5933 1222.4 78.9267 1223.27 78.46C1224.14 77.98 1225.1 77.74 1226.17 77.74C1227.24 77.74 1228.2 77.98 1229.07 78.46C1229.94 78.9267 1230.62 79.5933 1231.11 80.46C1231.62 81.3267 1231.87 82.3267 1231.87 83.46C1231.87 84.5933 1231.61 85.5933 1231.09 86.46C1230.58 87.3267 1229.89 88 1229.01 88.48C1228.14 88.9467 1227.17 89.18 1226.09 89.18ZM1226.09 86.74C1226.6 86.74 1227.07 86.62 1227.51 86.38C1227.96 86.1267 1228.32 85.7533 1228.59 85.26C1228.86 84.7667 1228.99 84.1667 1228.99 83.46C1228.99 82.4067 1228.71 81.6 1228.15 81.04C1227.6 80.4667 1226.93 80.18 1226.13 80.18C1225.33 80.18 1224.66 80.4667 1224.11 81.04C1223.58 81.6 1223.31 82.4067 1223.31 83.46C1223.31 84.5133 1223.57 85.3267 1224.09 85.9C1224.62 86.46 1225.29 86.74 1226.09 86.74ZM1240.06 77.76C1241.38 77.76 1242.45 78.18 1243.26 79.02C1244.08 79.8467 1244.48 81.0067 1244.48 82.5V89H1241.68V82.88C1241.68 82 1241.46 81.3267 1241.02 80.86C1240.58 80.38 1239.98 80.14 1239.22 80.14C1238.45 80.14 1237.84 80.38 1237.38 80.86C1236.94 81.3267 1236.72 82 1236.72 82.88V89H1233.92V77.92H1236.72V79.3C1237.1 78.82 1237.57 78.4467 1238.14 78.18C1238.73 77.9 1239.37 77.76 1240.06 77.76ZM1246.43 83.42C1246.43 82.3 1246.65 81.3067 1247.09 80.44C1247.54 79.5733 1248.15 78.9067 1248.91 78.44C1249.68 77.9733 1250.54 77.74 1251.49 77.74C1252.31 77.74 1253.03 77.9067 1253.65 78.24C1254.27 78.5733 1254.77 78.9933 1255.15 79.5V77.92H1257.97V89H1255.15V87.38C1254.79 87.9 1254.29 88.3333 1253.65 88.68C1253.02 89.0133 1252.29 89.18 1251.47 89.18C1250.53 89.18 1249.68 88.94 1248.91 88.46C1248.15 87.98 1247.54 87.3067 1247.09 86.44C1246.65 85.56 1246.43 84.5533 1246.43 83.42ZM1255.15 83.46C1255.15 82.78 1255.01 82.2 1254.75 81.72C1254.48 81.2267 1254.12 80.8533 1253.67 80.6C1253.21 80.3333 1252.73 80.2 1252.21 80.2C1251.69 80.2 1251.21 80.3267 1250.77 80.58C1250.33 80.8333 1249.97 81.2067 1249.69 81.7C1249.42 82.18 1249.29 82.7533 1249.29 83.42C1249.29 84.0867 1249.42 84.6733 1249.69 85.18C1249.97 85.6733 1250.33 86.0533 1250.77 86.32C1251.22 86.5867 1251.7 86.72 1252.21 86.72C1252.73 86.72 1253.21 86.5933 1253.67 86.34C1254.12 86.0733 1254.48 85.7 1254.75 85.22C1255.01 84.7267 1255.15 84.14 1255.15 83.46ZM1263.96 80.22V85.58C1263.96 85.9533 1264.05 86.2267 1264.22 86.4C1264.41 86.56 1264.71 86.64 1265.14 86.64H1266.44V89H1264.68C1262.32 89 1261.14 87.8533 1261.14 85.56V80.22H1259.82V77.92H1261.14V75.18H1263.96V77.92H1266.44V80.22H1263.96ZM1267.73 83.42C1267.73 82.3 1267.95 81.3067 1268.39 80.44C1268.85 79.5733 1269.45 78.9067 1270.21 78.44C1270.99 77.9733 1271.85 77.74 1272.79 77.74C1273.62 77.74 1274.34 77.9067 1274.95 78.24C1275.58 78.5733 1276.08 78.9933 1276.45 79.5V77.92H1279.27V89H1276.45V87.38C1276.09 87.9 1275.59 88.3333 1274.95 88.68C1274.33 89.0133 1273.6 89.18 1272.77 89.18C1271.84 89.18 1270.99 88.94 1270.21 88.46C1269.45 87.98 1268.85 87.3067 1268.39 86.44C1267.95 85.56 1267.73 84.5533 1267.73 83.42ZM1276.45 83.46C1276.45 82.78 1276.32 82.2 1276.05 81.72C1275.79 81.2267 1275.43 80.8533 1274.97 80.6C1274.52 80.3333 1274.03 80.2 1273.51 80.2C1272.99 80.2 1272.51 80.3267 1272.07 80.58C1271.63 80.8333 1271.27 81.2067 1270.99 81.7C1270.73 82.18 1270.59 82.7533 1270.59 83.42C1270.59 84.0867 1270.73 84.6733 1270.99 85.18C1271.27 85.6733 1271.63 86.0533 1272.07 86.32C1272.53 86.5867 1273.01 86.72 1273.51 86.72C1274.03 86.72 1274.52 86.5933 1274.97 86.34C1275.43 86.0733 1275.79 85.7 1276.05 85.22C1276.32 84.7267 1276.45 84.14 1276.45 83.46ZM1286.25 89.18C1285.34 89.18 1284.53 89.02 1283.81 88.7C1283.09 88.3667 1282.52 87.92 1282.09 87.36C1281.68 86.8 1281.45 86.18 1281.41 85.5H1284.23C1284.28 85.9267 1284.49 86.28 1284.85 86.56C1285.22 86.84 1285.68 86.98 1286.23 86.98C1286.76 86.98 1287.18 86.8733 1287.47 86.66C1287.78 86.4467 1287.93 86.1733 1287.93 85.84C1287.93 85.48 1287.74 85.2133 1287.37 85.04C1287.01 84.8533 1286.43 84.6533 1285.63 84.44C1284.8 84.24 1284.12 84.0333 1283.59 83.82C1283.07 83.6067 1282.62 83.28 1282.23 82.84C1281.86 82.4 1281.67 81.8067 1281.67 81.06C1281.67 80.4467 1281.84 79.8867 1282.19 79.38C1282.55 78.8733 1283.06 78.4733 1283.71 78.18C1284.38 77.8867 1285.16 77.74 1286.05 77.74C1287.37 77.74 1288.42 78.0733 1289.21 78.74C1290 79.3933 1290.43 80.28 1290.51 81.4H1287.83C1287.79 80.96 1287.6 80.6133 1287.27 80.36C1286.95 80.0933 1286.52 79.96 1285.97 79.96C1285.46 79.96 1285.07 80.0533 1284.79 80.24C1284.52 80.4267 1284.39 80.6867 1284.39 81.02C1284.39 81.3933 1284.58 81.68 1284.95 81.88C1285.32 82.0667 1285.9 82.26 1286.69 82.46C1287.49 82.66 1288.15 82.8667 1288.67 83.08C1289.19 83.2933 1289.64 83.6267 1290.01 84.08C1290.4 84.52 1290.6 85.1067 1290.61 85.84C1290.61 86.48 1290.43 87.0533 1290.07 87.56C1289.72 88.0667 1289.22 88.4667 1288.55 88.76C1287.9 89.04 1287.13 89.18 1286.25 89.18ZM1301.43 80.68V83.04H1292.95V80.68H1301.43ZM1307.37 79.52C1307.73 79.0133 1308.22 78.5933 1308.85 78.26C1309.49 77.9133 1310.21 77.74 1311.03 77.74C1311.97 77.74 1312.83 77.9733 1313.59 78.44C1314.36 78.9067 1314.97 79.5733 1315.41 80.44C1315.86 81.2933 1316.09 82.2867 1316.09 83.42C1316.09 84.5533 1315.86 85.56 1315.41 86.44C1314.97 87.3067 1314.36 87.98 1313.59 88.46C1312.83 88.94 1311.97 89.18 1311.03 89.18C1310.21 89.18 1309.49 89.0133 1308.87 88.68C1308.25 88.3467 1307.75 87.9267 1307.37 87.42V94.28H1304.57V77.92H1307.37V79.52ZM1313.23 83.42C1313.23 82.7533 1313.09 82.18 1312.81 81.7C1312.54 81.2067 1312.18 80.8333 1311.73 80.58C1311.29 80.3267 1310.81 80.2 1310.29 80.2C1309.78 80.2 1309.3 80.3333 1308.85 80.6C1308.41 80.8533 1308.05 81.2267 1307.77 81.72C1307.5 82.2133 1307.37 82.7933 1307.37 83.46C1307.37 84.1267 1307.5 84.7067 1307.77 85.2C1308.05 85.6933 1308.41 86.0733 1308.85 86.34C1309.3 86.5933 1309.78 86.72 1310.29 86.72C1310.81 86.72 1311.29 86.5867 1311.73 86.32C1312.18 86.0533 1312.54 85.6733 1312.81 85.18C1313.09 84.6867 1313.23 84.1 1313.23 83.42ZM1323.04 89.18C1321.98 89.18 1321.02 88.9467 1320.16 88.48C1319.31 88 1318.64 87.3267 1318.14 86.46C1317.66 85.5933 1317.42 84.5933 1317.42 83.46C1317.42 82.3267 1317.67 81.3267 1318.16 80.46C1318.67 79.5933 1319.36 78.9267 1320.22 78.46C1321.09 77.98 1322.06 77.74 1323.12 77.74C1324.19 77.74 1325.16 77.98 1326.02 78.46C1326.89 78.9267 1327.57 79.5933 1328.06 80.46C1328.57 81.3267 1328.82 82.3267 1328.82 83.46C1328.82 84.5933 1328.56 85.5933 1328.04 86.46C1327.54 87.3267 1326.84 88 1325.96 88.48C1325.1 88.9467 1324.12 89.18 1323.04 89.18ZM1323.04 86.74C1323.55 86.74 1324.02 86.62 1324.46 86.38C1324.92 86.1267 1325.28 85.7533 1325.54 85.26C1325.81 84.7667 1325.94 84.1667 1325.94 83.46C1325.94 82.4067 1325.66 81.6 1325.1 81.04C1324.56 80.4667 1323.88 80.18 1323.08 80.18C1322.28 80.18 1321.61 80.4667 1321.06 81.04C1320.53 81.6 1320.26 82.4067 1320.26 83.46C1320.26 84.5133 1320.52 85.3267 1321.04 85.9C1321.58 86.46 1322.24 86.74 1323.04 86.74ZM1333.68 79.64C1334.04 79.0533 1334.5 78.5933 1335.08 78.26C1335.66 77.9267 1336.33 77.76 1337.08 77.76V80.7H1336.34C1335.46 80.7 1334.79 80.9067 1334.34 81.32C1333.9 81.7333 1333.68 82.4533 1333.68 83.48V89H1330.88V77.92H1333.68V79.64ZM1342.22 80.22V85.58C1342.22 85.9533 1342.31 86.2267 1342.48 86.4C1342.67 86.56 1342.98 86.64 1343.4 86.64H1344.7V89H1342.94C1340.58 89 1339.4 87.8533 1339.4 85.56V80.22H1338.08V77.92H1339.4V75.18H1342.22V77.92H1344.7V80.22H1342.22ZM1351.8 80.22H1349.86V89H1347.02V80.22H1345.76V77.92H1347.02V77.36C1347.02 76 1347.4 75 1348.18 74.36C1348.95 73.72 1350.12 73.42 1351.68 73.46V75.82C1351 75.8067 1350.52 75.92 1350.26 76.16C1349.99 76.4 1349.86 76.8333 1349.86 77.46V77.92H1351.8V80.22ZM1358.53 89.18C1357.46 89.18 1356.5 88.9467 1355.65 88.48C1354.8 88 1354.12 87.3267 1353.63 86.46C1353.15 85.5933 1352.91 84.5933 1352.91 83.46C1352.91 82.3267 1353.16 81.3267 1353.65 80.46C1354.16 79.5933 1354.84 78.9267 1355.71 78.46C1356.58 77.98 1357.54 77.74 1358.61 77.74C1359.68 77.74 1360.64 77.98 1361.51 78.46C1362.38 78.9267 1363.06 79.5933 1363.55 80.46C1364.06 81.3267 1364.31 82.3267 1364.31 83.46C1364.31 84.5933 1364.05 85.5933 1363.53 86.46C1363.02 87.3267 1362.33 88 1361.45 88.48C1360.58 88.9467 1359.61 89.18 1358.53 89.18ZM1358.53 86.74C1359.04 86.74 1359.51 86.62 1359.95 86.38C1360.4 86.1267 1360.76 85.7533 1361.03 85.26C1361.3 84.7667 1361.43 84.1667 1361.43 83.46C1361.43 82.4067 1361.15 81.6 1360.59 81.04C1360.04 80.4667 1359.37 80.18 1358.57 80.18C1357.77 80.18 1357.1 80.4667 1356.55 81.04C1356.02 81.6 1355.75 82.4067 1355.75 83.46C1355.75 84.5133 1356.01 85.3267 1356.53 85.9C1357.06 86.46 1357.73 86.74 1358.53 86.74ZM1369.16 74.2V89H1366.36V74.2H1369.16ZM1373.35 76.6C1372.86 76.6 1372.44 76.4467 1372.11 76.14C1371.79 75.82 1371.63 75.4267 1371.63 74.96C1371.63 74.4933 1371.79 74.1067 1372.11 73.8C1372.44 73.48 1372.86 73.32 1373.35 73.32C1373.84 73.32 1374.25 73.48 1374.57 73.8C1374.9 74.1067 1375.07 74.4933 1375.07 74.96C1375.07 75.4267 1374.9 75.82 1374.57 76.14C1374.25 76.4467 1373.84 76.6 1373.35 76.6ZM1374.73 77.92V89H1371.93V77.92H1374.73ZM1382.42 89.18C1381.35 89.18 1380.39 88.9467 1379.54 88.48C1378.68 88 1378.01 87.3267 1377.52 86.46C1377.04 85.5933 1376.8 84.5933 1376.8 83.46C1376.8 82.3267 1377.04 81.3267 1377.54 80.46C1378.04 79.5933 1378.73 78.9267 1379.6 78.46C1380.46 77.98 1381.43 77.74 1382.5 77.74C1383.56 77.74 1384.53 77.98 1385.4 78.46C1386.26 78.9267 1386.94 79.5933 1387.44 80.46C1387.94 81.3267 1388.2 82.3267 1388.2 83.46C1388.2 84.5933 1387.94 85.5933 1387.42 86.46C1386.91 87.3267 1386.22 88 1385.34 88.48C1384.47 88.9467 1383.5 89.18 1382.42 89.18ZM1382.42 86.74C1382.92 86.74 1383.4 86.62 1383.84 86.38C1384.29 86.1267 1384.65 85.7533 1384.92 85.26C1385.18 84.7667 1385.32 84.1667 1385.32 83.46C1385.32 82.4067 1385.04 81.6 1384.48 81.04C1383.93 80.4667 1383.26 80.18 1382.46 80.18C1381.66 80.18 1380.98 80.4667 1380.44 81.04C1379.9 81.6 1379.64 82.4067 1379.64 83.46C1379.64 84.5133 1379.9 85.3267 1380.42 85.9C1380.95 86.46 1381.62 86.74 1382.42 86.74ZM1391.49 89.14C1390.98 89.14 1390.56 88.9867 1390.23 88.68C1389.91 88.36 1389.75 87.9667 1389.75 87.5C1389.75 87.0333 1389.91 86.6467 1390.23 86.34C1390.56 86.02 1390.98 85.86 1391.49 85.86C1391.98 85.86 1392.39 86.02 1392.71 86.34C1393.03 86.6467 1393.19 87.0333 1393.19 87.5C1393.19 87.9667 1393.03 88.36 1392.71 88.68C1392.39 88.9867 1391.98 89.14 1391.49 89.14ZM1400.07 86.42L1402.87 77.92H1405.85L1401.75 89H1398.35L1394.27 77.92H1397.27L1400.07 86.42ZM1417.72 83.22C1417.72 83.62 1417.69 83.98 1417.64 84.3H1409.54C1409.61 85.1 1409.89 85.7267 1410.38 86.18C1410.87 86.6333 1411.48 86.86 1412.2 86.86C1413.24 86.86 1413.98 86.4133 1414.42 85.52H1417.44C1417.12 86.5867 1416.51 87.4667 1415.6 88.16C1414.69 88.84 1413.58 89.18 1412.26 89.18C1411.19 89.18 1410.23 88.9467 1409.38 88.48C1408.54 88 1407.88 87.3267 1407.4 86.46C1406.93 85.5933 1406.7 84.5933 1406.7 83.46C1406.7 82.3133 1406.93 81.3067 1407.4 80.44C1407.87 79.5733 1408.52 78.9067 1409.36 78.44C1410.2 77.9733 1411.17 77.74 1412.26 77.74C1413.31 77.74 1414.25 77.9667 1415.08 78.42C1415.92 78.8733 1416.57 79.52 1417.02 80.36C1417.49 81.1867 1417.72 82.14 1417.72 83.22ZM1414.82 82.42C1414.81 81.7 1414.55 81.1267 1414.04 80.7C1413.53 80.26 1412.91 80.04 1412.18 80.04C1411.49 80.04 1410.9 80.2533 1410.42 80.68C1409.95 81.0933 1409.67 81.6733 1409.56 82.42H1414.82ZM1422.56 79.64C1422.92 79.0533 1423.39 78.5933 1423.96 78.26C1424.55 77.9267 1425.22 77.76 1425.96 77.76V80.7H1425.22C1424.34 80.7 1423.68 80.9067 1423.22 81.32C1422.78 81.7333 1422.56 82.4533 1422.56 83.48V89H1419.76V77.92H1422.56V79.64ZM1427.13 83.46C1427.13 82.3133 1427.36 81.3133 1427.83 80.46C1428.3 79.5933 1428.94 78.9267 1429.77 78.46C1430.6 77.98 1431.54 77.74 1432.61 77.74C1433.98 77.74 1435.12 78.0867 1436.01 78.78C1436.92 79.46 1437.52 80.42 1437.83 81.66H1434.81C1434.65 81.18 1434.38 80.8067 1433.99 80.54C1433.62 80.26 1433.15 80.12 1432.59 80.12C1431.79 80.12 1431.16 80.4133 1430.69 81C1430.22 81.5733 1429.99 82.3933 1429.99 83.46C1429.99 84.5133 1430.22 85.3333 1430.69 85.92C1431.16 86.4933 1431.79 86.78 1432.59 86.78C1433.72 86.78 1434.46 86.2733 1434.81 85.26H1437.83C1437.52 86.46 1436.92 87.4133 1436.01 88.12C1435.1 88.8267 1433.97 89.18 1432.61 89.18C1431.54 89.18 1430.6 88.9467 1429.77 88.48C1428.94 88 1428.3 87.3333 1427.83 86.48C1427.36 85.6133 1427.13 84.6067 1427.13 83.46ZM1450.18 83.22C1450.18 83.62 1450.15 83.98 1450.1 84.3H1442C1442.07 85.1 1442.35 85.7267 1442.84 86.18C1443.33 86.6333 1443.94 86.86 1444.66 86.86C1445.7 86.86 1446.44 86.4133 1446.88 85.52H1449.9C1449.58 86.5867 1448.97 87.4667 1448.06 88.16C1447.15 88.84 1446.04 89.18 1444.72 89.18C1443.65 89.18 1442.69 88.9467 1441.84 88.48C1441 88 1440.34 87.3267 1439.86 86.46C1439.39 85.5933 1439.16 84.5933 1439.16 83.46C1439.16 82.3133 1439.39 81.3067 1439.86 80.44C1440.33 79.5733 1440.98 78.9067 1441.82 78.44C1442.66 77.9733 1443.63 77.74 1444.72 77.74C1445.77 77.74 1446.71 77.9667 1447.54 78.42C1448.38 78.8733 1449.03 79.52 1449.48 80.36C1449.95 81.1867 1450.18 82.14 1450.18 83.22ZM1447.28 82.42C1447.27 81.7 1447.01 81.1267 1446.5 80.7C1445.99 80.26 1445.37 80.04 1444.64 80.04C1443.95 80.04 1443.36 80.2533 1442.88 80.68C1442.41 81.0933 1442.13 81.6733 1442.02 82.42H1447.28ZM1455.02 74.2V89H1452.22V74.2H1455.02ZM1459.03 89.14C1458.52 89.14 1458.1 88.9867 1457.77 88.68C1457.45 88.36 1457.29 87.9667 1457.29 87.5C1457.29 87.0333 1457.45 86.6467 1457.77 86.34C1458.1 86.02 1458.52 85.86 1459.03 85.86C1459.52 85.86 1459.93 86.02 1460.25 86.34C1460.57 86.6467 1460.73 87.0333 1460.73 87.5C1460.73 87.9667 1460.57 88.36 1460.25 88.68C1459.93 88.9867 1459.52 89.14 1459.03 89.14ZM1462.27 83.42C1462.27 82.3 1462.49 81.3067 1462.93 80.44C1463.38 79.5733 1463.99 78.9067 1464.75 78.44C1465.52 77.9733 1466.38 77.74 1467.33 77.74C1468.15 77.74 1468.87 77.9067 1469.49 78.24C1470.11 78.5733 1470.61 78.9933 1470.99 79.5V77.92H1473.81V89H1470.99V87.38C1470.63 87.9 1470.13 88.3333 1469.49 88.68C1468.86 89.0133 1468.13 89.18 1467.31 89.18C1466.37 89.18 1465.52 88.94 1464.75 88.46C1463.99 87.98 1463.38 87.3067 1462.93 86.44C1462.49 85.56 1462.27 84.5533 1462.27 83.42ZM1470.99 83.46C1470.99 82.78 1470.85 82.2 1470.59 81.72C1470.32 81.2267 1469.96 80.8533 1469.51 80.6C1469.05 80.3333 1468.57 80.2 1468.05 80.2C1467.53 80.2 1467.05 80.3267 1466.61 80.58C1466.17 80.8333 1465.81 81.2067 1465.53 81.7C1465.26 82.18 1465.13 82.7533 1465.13 83.42C1465.13 84.0867 1465.26 84.6733 1465.53 85.18C1465.81 85.6733 1466.17 86.0533 1466.61 86.32C1467.06 86.5867 1467.54 86.72 1468.05 86.72C1468.57 86.72 1469.05 86.5933 1469.51 86.34C1469.96 86.0733 1470.32 85.7 1470.59 85.22C1470.85 84.7267 1470.99 84.14 1470.99 83.46ZM1479.34 79.52C1479.7 79.0133 1480.19 78.5933 1480.82 78.26C1481.46 77.9133 1482.19 77.74 1483 77.74C1483.95 77.74 1484.8 77.9733 1485.56 78.44C1486.33 78.9067 1486.94 79.5733 1487.38 80.44C1487.83 81.2933 1488.06 82.2867 1488.06 83.42C1488.06 84.5533 1487.83 85.56 1487.38 86.44C1486.94 87.3067 1486.33 87.98 1485.56 88.46C1484.8 88.94 1483.95 89.18 1483 89.18C1482.19 89.18 1481.47 89.0133 1480.84 88.68C1480.23 88.3467 1479.73 87.9267 1479.34 87.42V94.28H1476.54V77.92H1479.34V79.52ZM1485.2 83.42C1485.2 82.7533 1485.06 82.18 1484.78 81.7C1484.51 81.2067 1484.15 80.8333 1483.7 80.58C1483.26 80.3267 1482.78 80.2 1482.26 80.2C1481.75 80.2 1481.27 80.3333 1480.82 80.6C1480.38 80.8533 1480.02 81.2267 1479.74 81.72C1479.47 82.2133 1479.34 82.7933 1479.34 83.46C1479.34 84.1267 1479.47 84.7067 1479.74 85.2C1480.02 85.6933 1480.38 86.0733 1480.82 86.34C1481.27 86.5933 1481.75 86.72 1482.26 86.72C1482.78 86.72 1483.26 86.5867 1483.7 86.32C1484.15 86.0533 1484.51 85.6733 1484.78 85.18C1485.06 84.6867 1485.2 84.1 1485.2 83.42ZM1492.89 79.52C1493.25 79.0133 1493.75 78.5933 1494.37 78.26C1495.01 77.9133 1495.74 77.74 1496.55 77.74C1497.5 77.74 1498.35 77.9733 1499.11 78.44C1499.89 78.9067 1500.49 79.5733 1500.93 80.44C1501.39 81.2933 1501.61 82.2867 1501.61 83.42C1501.61 84.5533 1501.39 85.56 1500.93 86.44C1500.49 87.3067 1499.89 87.98 1499.11 88.46C1498.35 88.94 1497.5 89.18 1496.55 89.18C1495.74 89.18 1495.02 89.0133 1494.39 88.68C1493.78 88.3467 1493.28 87.9267 1492.89 87.42V94.28H1490.09V77.92H1492.89V79.52ZM1498.75 83.42C1498.75 82.7533 1498.61 82.18 1498.33 81.7C1498.07 81.2067 1497.71 80.8333 1497.25 80.58C1496.81 80.3267 1496.33 80.2 1495.81 80.2C1495.31 80.2 1494.83 80.3333 1494.37 80.6C1493.93 80.8533 1493.57 81.2267 1493.29 81.72C1493.03 82.2133 1492.89 82.7933 1492.89 83.46C1492.89 84.1267 1493.03 84.7067 1493.29 85.2C1493.57 85.6933 1493.93 86.0733 1494.37 86.34C1494.83 86.5933 1495.31 86.72 1495.81 86.72C1496.33 86.72 1496.81 86.5867 1497.25 86.32C1497.71 86.0533 1498.07 85.6733 1498.33 85.18C1498.61 84.6867 1498.75 84.1 1498.75 83.42Z" fill="#FF5C00"/>
<path d="M1203.8 110.6C1203.29 110.6 1202.87 110.447 1202.54 110.14C1202.22 109.82 1202.06 109.427 1202.06 108.96C1202.06 108.493 1202.22 108.107 1202.54 107.8C1202.87 107.48 1203.29 107.32 1203.8 107.32C1204.29 107.32 1204.7 107.48 1205.02 107.8C1205.34 108.107 1205.5 108.493 1205.5 108.96C1205.5 109.427 1205.34 109.82 1205.02 110.14C1204.7 110.447 1204.29 110.6 1203.8 110.6ZM1205.18 124.82C1205.18 126.047 1204.87 126.927 1204.26 127.46C1203.66 128.007 1202.79 128.28 1201.66 128.28H1200.42V125.9H1201.22C1201.65 125.9 1201.95 125.813 1202.12 125.64C1202.29 125.48 1202.38 125.213 1202.38 124.84V111.92H1205.18V124.82ZM1214.19 111.76C1215.03 111.76 1215.77 111.947 1216.43 112.32C1217.08 112.68 1217.59 113.22 1217.95 113.94C1218.32 114.647 1218.51 115.5 1218.51 116.5V123H1215.71V116.88C1215.71 116 1215.49 115.327 1215.05 114.86C1214.61 114.38 1214.01 114.14 1213.25 114.14C1212.47 114.14 1211.86 114.38 1211.41 114.86C1210.97 115.327 1210.75 116 1210.75 116.88V123H1207.95V108.2H1210.75V113.3C1211.11 112.82 1211.59 112.447 1212.19 112.18C1212.79 111.9 1213.45 111.76 1214.19 111.76ZM1226.09 123.18C1225.02 123.18 1224.06 122.947 1223.21 122.48C1222.36 122 1221.68 121.327 1221.19 120.46C1220.71 119.593 1220.47 118.593 1220.47 117.46C1220.47 116.327 1220.72 115.327 1221.21 114.46C1221.72 113.593 1222.4 112.927 1223.27 112.46C1224.14 111.98 1225.1 111.74 1226.17 111.74C1227.24 111.74 1228.2 111.98 1229.07 112.46C1229.94 112.927 1230.62 113.593 1231.11 114.46C1231.62 115.327 1231.87 116.327 1231.87 117.46C1231.87 118.593 1231.61 119.593 1231.09 120.46C1230.58 121.327 1229.89 122 1229.01 122.48C1228.14 122.947 1227.17 123.18 1226.09 123.18ZM1226.09 120.74C1226.6 120.74 1227.07 120.62 1227.51 120.38C1227.96 120.127 1228.32 119.753 1228.59 119.26C1228.86 118.767 1228.99 118.167 1228.99 117.46C1228.99 116.407 1228.71 115.6 1228.15 115.04C1227.6 114.467 1226.93 114.18 1226.13 114.18C1225.33 114.18 1224.66 114.467 1224.11 115.04C1223.58 115.6 1223.31 116.407 1223.31 117.46C1223.31 118.513 1223.57 119.327 1224.09 119.9C1224.62 120.46 1225.29 120.74 1226.09 120.74ZM1240.06 111.76C1241.38 111.76 1242.45 112.18 1243.26 113.02C1244.08 113.847 1244.48 115.007 1244.48 116.5V123H1241.68V116.88C1241.68 116 1241.46 115.327 1241.02 114.86C1240.58 114.38 1239.98 114.14 1239.22 114.14C1238.45 114.14 1237.84 114.38 1237.38 114.86C1236.94 115.327 1236.72 116 1236.72 116.88V123H1233.92V111.92H1236.72V113.3C1237.1 112.82 1237.57 112.447 1238.14 112.18C1238.73 111.9 1239.37 111.76 1240.06 111.76ZM1246.43 117.42C1246.43 116.3 1246.65 115.307 1247.09 114.44C1247.54 113.573 1248.15 112.907 1248.91 112.44C1249.68 111.973 1250.54 111.74 1251.49 111.74C1252.31 111.74 1253.03 111.907 1253.65 112.24C1254.27 112.573 1254.77 112.993 1255.15 113.5V111.92H1257.97V123H1255.15V121.38C1254.79 121.9 1254.29 122.333 1253.65 122.68C1253.02 123.013 1252.29 123.18 1251.47 123.18C1250.53 123.18 1249.68 122.94 1248.91 122.46C1248.15 121.98 1247.54 121.307 1247.09 120.44C1246.65 119.56 1246.43 118.553 1246.43 117.42ZM1255.15 117.46C1255.15 116.78 1255.01 116.2 1254.75 115.72C1254.48 115.227 1254.12 114.853 1253.67 114.6C1253.21 114.333 1252.73 114.2 1252.21 114.2C1251.69 114.2 1251.21 114.327 1250.77 114.58C1250.33 114.833 1249.97 115.207 1249.69 115.7C1249.42 116.18 1249.29 116.753 1249.29 117.42C1249.29 118.087 1249.42 118.673 1249.69 119.18C1249.97 119.673 1250.33 120.053 1250.77 120.32C1251.22 120.587 1251.7 120.72 1252.21 120.72C1252.73 120.72 1253.21 120.593 1253.67 120.34C1254.12 120.073 1254.48 119.7 1254.75 119.22C1255.01 118.727 1255.15 118.14 1255.15 117.46ZM1263.96 114.22V119.58C1263.96 119.953 1264.05 120.227 1264.22 120.4C1264.41 120.56 1264.71 120.64 1265.14 120.64H1266.44V123H1264.68C1262.32 123 1261.14 121.853 1261.14 119.56V114.22H1259.82V111.92H1261.14V109.18H1263.96V111.92H1266.44V114.22H1263.96ZM1267.73 117.42C1267.73 116.3 1267.95 115.307 1268.39 114.44C1268.85 113.573 1269.45 112.907 1270.21 112.44C1270.99 111.973 1271.85 111.74 1272.79 111.74C1273.62 111.74 1274.34 111.907 1274.95 112.24C1275.58 112.573 1276.08 112.993 1276.45 113.5V111.92H1279.27V123H1276.45V121.38C1276.09 121.9 1275.59 122.333 1274.95 122.68C1274.33 123.013 1273.6 123.18 1272.77 123.18C1271.84 123.18 1270.99 122.94 1270.21 122.46C1269.45 121.98 1268.85 121.307 1268.39 120.44C1267.95 119.56 1267.73 118.553 1267.73 117.42ZM1276.45 117.46C1276.45 116.78 1276.32 116.2 1276.05 115.72C1275.79 115.227 1275.43 114.853 1274.97 114.6C1274.52 114.333 1274.03 114.2 1273.51 114.2C1272.99 114.2 1272.51 114.327 1272.07 114.58C1271.63 114.833 1271.27 115.207 1270.99 115.7C1270.73 116.18 1270.59 116.753 1270.59 117.42C1270.59 118.087 1270.73 118.673 1270.99 119.18C1271.27 119.673 1271.63 120.053 1272.07 120.32C1272.53 120.587 1273.01 120.72 1273.51 120.72C1274.03 120.72 1274.52 120.593 1274.97 120.34C1275.43 120.073 1275.79 119.7 1276.05 119.22C1276.32 118.727 1276.45 118.14 1276.45 117.46ZM1286.25 123.18C1285.34 123.18 1284.53 123.02 1283.81 122.7C1283.09 122.367 1282.52 121.92 1282.09 121.36C1281.68 120.8 1281.45 120.18 1281.41 119.5H1284.23C1284.28 119.927 1284.49 120.28 1284.85 120.56C1285.22 120.84 1285.68 120.98 1286.23 120.98C1286.76 120.98 1287.18 120.873 1287.47 120.66C1287.78 120.447 1287.93 120.173 1287.93 119.84C1287.93 119.48 1287.74 119.213 1287.37 119.04C1287.01 118.853 1286.43 118.653 1285.63 118.44C1284.8 118.24 1284.12 118.033 1283.59 117.82C1283.07 117.607 1282.62 117.28 1282.23 116.84C1281.86 116.4 1281.67 115.807 1281.67 115.06C1281.67 114.447 1281.84 113.887 1282.19 113.38C1282.55 112.873 1283.06 112.473 1283.71 112.18C1284.38 111.887 1285.16 111.74 1286.05 111.74C1287.37 111.74 1288.42 112.073 1289.21 112.74C1290 113.393 1290.43 114.28 1290.51 115.4H1287.83C1287.79 114.96 1287.6 114.613 1287.27 114.36C1286.95 114.093 1286.52 113.96 1285.97 113.96C1285.46 113.96 1285.07 114.053 1284.79 114.24C1284.52 114.427 1284.39 114.687 1284.39 115.02C1284.39 115.393 1284.58 115.68 1284.95 115.88C1285.32 116.067 1285.9 116.26 1286.69 116.46C1287.49 116.66 1288.15 116.867 1288.67 117.08C1289.19 117.293 1289.64 117.627 1290.01 118.08C1290.4 118.52 1290.6 119.107 1290.61 119.84C1290.61 120.48 1290.43 121.053 1290.07 121.56C1289.72 122.067 1289.22 122.467 1288.55 122.76C1287.9 123.04 1287.13 123.18 1286.25 123.18ZM1294.33 110.6C1293.82 110.6 1293.4 110.447 1293.07 110.14C1292.75 109.82 1292.59 109.427 1292.59 108.96C1292.59 108.493 1292.75 108.107 1293.07 107.8C1293.4 107.48 1293.82 107.32 1294.33 107.32C1294.82 107.32 1295.23 107.48 1295.55 107.8C1295.87 108.107 1296.03 108.493 1296.03 108.96C1296.03 109.427 1295.87 109.82 1295.55 110.14C1295.23 110.447 1294.82 110.6 1294.33 110.6ZM1295.71 124.82C1295.71 126.047 1295.4 126.927 1294.79 127.46C1294.19 128.007 1293.32 128.28 1292.19 128.28H1290.95V125.9H1291.75C1292.17 125.9 1292.47 125.813 1292.65 125.64C1292.82 125.48 1292.91 125.213 1292.91 124.84V111.92H1295.71V124.82ZM1304.71 111.76C1305.55 111.76 1306.3 111.947 1306.95 112.32C1307.61 112.68 1308.11 113.22 1308.47 113.94C1308.85 114.647 1309.03 115.5 1309.03 116.5V123H1306.23V116.88C1306.23 116 1306.01 115.327 1305.57 114.86C1305.13 114.38 1304.53 114.14 1303.77 114.14C1303 114.14 1302.39 114.38 1301.93 114.86C1301.49 115.327 1301.27 116 1301.27 116.88V123H1298.47V108.2H1301.27V113.3C1301.63 112.82 1302.11 112.447 1302.71 112.18C1303.31 111.9 1303.98 111.76 1304.71 111.76ZM1325.46 111.76C1326.82 111.76 1327.91 112.18 1328.74 113.02C1329.58 113.847 1330 115.007 1330 116.5V123H1327.2V116.88C1327.2 116.013 1326.98 115.353 1326.54 114.9C1326.1 114.433 1325.5 114.2 1324.74 114.2C1323.98 114.2 1323.37 114.433 1322.92 114.9C1322.48 115.353 1322.26 116.013 1322.26 116.88V123H1319.46V116.88C1319.46 116.013 1319.24 115.353 1318.8 114.9C1318.36 114.433 1317.76 114.2 1317 114.2C1316.22 114.2 1315.61 114.433 1315.16 114.9C1314.72 115.353 1314.5 116.013 1314.5 116.88V123H1311.7V111.92H1314.5V113.26C1314.86 112.793 1315.32 112.427 1315.88 112.16C1316.45 111.893 1317.08 111.76 1317.76 111.76C1318.62 111.76 1319.4 111.947 1320.08 112.32C1320.76 112.68 1321.28 113.2 1321.66 113.88C1322.02 113.24 1322.54 112.727 1323.22 112.34C1323.91 111.953 1324.66 111.76 1325.46 111.76ZM1334.07 110.6C1333.57 110.6 1333.15 110.447 1332.81 110.14C1332.49 109.82 1332.33 109.427 1332.33 108.96C1332.33 108.493 1332.49 108.107 1332.81 107.8C1333.15 107.48 1333.57 107.32 1334.07 107.32C1334.57 107.32 1334.97 107.48 1335.29 107.8C1335.61 108.107 1335.77 108.493 1335.77 108.96C1335.77 109.427 1335.61 109.82 1335.29 110.14C1334.97 110.447 1334.57 110.6 1334.07 110.6ZM1335.45 124.82C1335.45 126.047 1335.15 126.927 1334.53 127.46C1333.93 128.007 1333.07 128.28 1331.93 128.28H1330.69V125.9H1331.49C1331.92 125.9 1332.22 125.813 1332.39 125.64C1332.57 125.48 1332.65 125.213 1332.65 124.84V111.92H1335.45V124.82ZM1348.88 109.88C1350.43 109.88 1351.77 110.167 1352.9 110.74C1354.03 111.313 1354.9 112.12 1355.5 113.16C1356.11 114.2 1356.42 115.4 1356.42 116.76C1356.42 117.853 1356.23 118.887 1355.84 119.86C1355.47 120.833 1354.92 121.62 1354.2 122.22C1353.48 122.82 1352.63 123.12 1351.64 123.12C1350.95 123.12 1350.39 122.98 1349.96 122.7C1349.53 122.407 1349.26 121.993 1349.14 121.46C1348.75 121.98 1348.25 122.393 1347.64 122.7C1347.03 122.993 1346.38 123.14 1345.7 123.14C1344.69 123.14 1343.89 122.84 1343.32 122.24C1342.75 121.627 1342.46 120.793 1342.46 119.74C1342.46 118.74 1342.67 117.807 1343.08 116.94C1343.49 116.073 1344.07 115.38 1344.8 114.86C1345.53 114.327 1346.36 114.06 1347.28 114.06C1348.43 114.06 1349.21 114.46 1349.64 115.26L1349.82 114.22H1352.16L1351.22 119.62C1351.18 119.873 1351.16 120.107 1351.16 120.32C1351.16 120.64 1351.23 120.88 1351.36 121.04C1351.49 121.2 1351.72 121.28 1352.04 121.28C1352.52 121.28 1352.92 121.053 1353.24 120.6C1353.57 120.147 1353.82 119.58 1353.98 118.9C1354.15 118.22 1354.24 117.54 1354.24 116.86C1354.24 115.247 1353.75 114 1352.76 113.12C1351.77 112.227 1350.38 111.78 1348.58 111.78C1347.05 111.78 1345.66 112.153 1344.42 112.9C1343.18 113.633 1342.21 114.64 1341.5 115.92C1340.81 117.187 1340.46 118.6 1340.46 120.16C1340.46 121.813 1340.95 123.087 1341.92 123.98C1342.91 124.873 1344.3 125.32 1346.1 125.32C1347.39 125.32 1348.53 125.087 1349.52 124.62L1349.92 126.46C1348.65 126.993 1347.25 127.26 1345.7 127.26C1344.21 127.26 1342.9 126.973 1341.78 126.4C1340.66 125.84 1339.79 125.04 1339.18 124C1338.57 122.96 1338.26 121.753 1338.26 120.38C1338.26 118.42 1338.71 116.64 1339.62 115.04C1340.54 113.44 1341.81 112.18 1343.42 111.26C1345.05 110.34 1346.87 109.88 1348.88 109.88ZM1346.58 121.06C1347.06 121.06 1347.5 120.92 1347.9 120.64C1348.3 120.36 1348.61 119.987 1348.84 119.52C1349.08 119.053 1349.2 118.553 1349.2 118.02C1349.2 117.46 1349.05 117.007 1348.74 116.66C1348.43 116.313 1348.01 116.14 1347.46 116.14C1346.97 116.14 1346.53 116.293 1346.16 116.6C1345.79 116.893 1345.49 117.28 1345.28 117.76C1345.08 118.24 1344.98 118.747 1344.98 119.28C1344.98 119.827 1345.11 120.26 1345.38 120.58C1345.65 120.9 1346.05 121.06 1346.58 121.06ZM1363.58 111.74C1364.4 111.74 1365.13 111.907 1365.76 112.24C1366.38 112.56 1366.88 112.98 1367.24 113.5V111.92H1370.06V123.08C1370.06 124.107 1369.85 125.02 1369.44 125.82C1369.02 126.633 1368.4 127.273 1367.58 127.74C1366.75 128.22 1365.75 128.46 1364.58 128.46C1363 128.46 1361.71 128.093 1360.7 127.36C1359.7 126.627 1359.13 125.627 1359 124.36H1361.78C1361.92 124.867 1362.24 125.267 1362.72 125.56C1363.21 125.867 1363.8 126.02 1364.5 126.02C1365.31 126.02 1365.97 125.773 1366.48 125.28C1366.98 124.8 1367.24 124.067 1367.24 123.08V121.36C1366.88 121.88 1366.38 122.313 1365.74 122.66C1365.11 123.007 1364.39 123.18 1363.58 123.18C1362.64 123.18 1361.79 122.94 1361.02 122.46C1360.24 121.98 1359.63 121.307 1359.18 120.44C1358.74 119.56 1358.52 118.553 1358.52 117.42C1358.52 116.3 1358.74 115.307 1359.18 114.44C1359.63 113.573 1360.24 112.907 1361 112.44C1361.77 111.973 1362.63 111.74 1363.58 111.74ZM1367.24 117.46C1367.24 116.78 1367.1 116.2 1366.84 115.72C1366.57 115.227 1366.21 114.853 1365.76 114.6C1365.3 114.333 1364.82 114.2 1364.3 114.2C1363.78 114.2 1363.3 114.327 1362.86 114.58C1362.42 114.833 1362.06 115.207 1361.78 115.7C1361.51 116.18 1361.38 116.753 1361.38 117.42C1361.38 118.087 1361.51 118.673 1361.78 119.18C1362.06 119.673 1362.42 120.053 1362.86 120.32C1363.31 120.587 1363.79 120.72 1364.3 120.72C1364.82 120.72 1365.3 120.593 1365.76 120.34C1366.21 120.073 1366.57 119.7 1366.84 119.22C1367.1 118.727 1367.24 118.14 1367.24 117.46ZM1386.55 111.76C1387.91 111.76 1389 112.18 1389.83 113.02C1390.67 113.847 1391.09 115.007 1391.09 116.5V123H1388.29V116.88C1388.29 116.013 1388.07 115.353 1387.63 114.9C1387.19 114.433 1386.59 114.2 1385.83 114.2C1385.07 114.2 1384.46 114.433 1384.01 114.9C1383.57 115.353 1383.35 116.013 1383.35 116.88V123H1380.55V116.88C1380.55 116.013 1380.33 115.353 1379.89 114.9C1379.45 114.433 1378.85 114.2 1378.09 114.2C1377.32 114.2 1376.7 114.433 1376.25 114.9C1375.81 115.353 1375.59 116.013 1375.59 116.88V123H1372.79V111.92H1375.59V113.26C1375.95 112.793 1376.41 112.427 1376.97 112.16C1377.54 111.893 1378.17 111.76 1378.85 111.76C1379.72 111.76 1380.49 111.947 1381.17 112.32C1381.85 112.68 1382.38 113.2 1382.75 113.88C1383.11 113.24 1383.63 112.727 1384.31 112.34C1385 111.953 1385.75 111.76 1386.55 111.76ZM1393.03 117.42C1393.03 116.3 1393.25 115.307 1393.69 114.44C1394.14 113.573 1394.75 112.907 1395.51 112.44C1396.28 111.973 1397.14 111.74 1398.09 111.74C1398.91 111.74 1399.63 111.907 1400.25 112.24C1400.87 112.573 1401.37 112.993 1401.75 113.5V111.92H1404.57V123H1401.75V121.38C1401.39 121.9 1400.89 122.333 1400.25 122.68C1399.62 123.013 1398.89 123.18 1398.07 123.18C1397.13 123.18 1396.28 122.94 1395.51 122.46C1394.75 121.98 1394.14 121.307 1393.69 120.44C1393.25 119.56 1393.03 118.553 1393.03 117.42ZM1401.75 117.46C1401.75 116.78 1401.61 116.2 1401.35 115.72C1401.08 115.227 1400.72 114.853 1400.27 114.6C1399.81 114.333 1399.33 114.2 1398.81 114.2C1398.29 114.2 1397.81 114.327 1397.37 114.58C1396.93 114.833 1396.57 115.207 1396.29 115.7C1396.02 116.18 1395.89 116.753 1395.89 117.42C1395.89 118.087 1396.02 118.673 1396.29 119.18C1396.57 119.673 1396.93 120.053 1397.37 120.32C1397.82 120.587 1398.3 120.72 1398.81 120.72C1399.33 120.72 1399.81 120.593 1400.27 120.34C1400.72 120.073 1401.08 119.7 1401.35 119.22C1401.61 118.727 1401.75 118.14 1401.75 117.46ZM1408.72 110.6C1408.23 110.6 1407.82 110.447 1407.48 110.14C1407.16 109.82 1407 109.427 1407 108.96C1407 108.493 1407.16 108.107 1407.48 107.8C1407.82 107.48 1408.23 107.32 1408.72 107.32C1409.22 107.32 1409.62 107.48 1409.94 107.8C1410.28 108.107 1410.44 108.493 1410.44 108.96C1410.44 109.427 1410.28 109.82 1409.94 110.14C1409.62 110.447 1409.22 110.6 1408.72 110.6ZM1410.1 111.92V123H1407.3V111.92H1410.1ZM1415.67 108.2V123H1412.87V108.2H1415.67ZM1419.67 123.14C1419.17 123.14 1418.75 122.987 1418.41 122.68C1418.09 122.36 1417.93 121.967 1417.93 121.5C1417.93 121.033 1418.09 120.647 1418.41 120.34C1418.75 120.02 1419.17 119.86 1419.67 119.86C1420.17 119.86 1420.57 120.02 1420.89 120.34C1421.21 120.647 1421.37 121.033 1421.37 121.5C1421.37 121.967 1421.21 122.36 1420.89 122.68C1420.57 122.987 1420.17 123.14 1419.67 123.14ZM1422.91 117.46C1422.91 116.313 1423.14 115.313 1423.61 114.46C1424.08 113.593 1424.72 112.927 1425.55 112.46C1426.38 111.98 1427.32 111.74 1428.39 111.74C1429.76 111.74 1430.9 112.087 1431.79 112.78C1432.7 113.46 1433.3 114.42 1433.61 115.66H1430.59C1430.43 115.18 1430.16 114.807 1429.77 114.54C1429.4 114.26 1428.93 114.12 1428.37 114.12C1427.57 114.12 1426.94 114.413 1426.47 115C1426 115.573 1425.77 116.393 1425.77 117.46C1425.77 118.513 1426 119.333 1426.47 119.92C1426.94 120.493 1427.57 120.78 1428.37 120.78C1429.5 120.78 1430.24 120.273 1430.59 119.26H1433.61C1433.3 120.46 1432.7 121.413 1431.79 122.12C1430.88 122.827 1429.75 123.18 1428.39 123.18C1427.32 123.18 1426.38 122.947 1425.55 122.48C1424.72 122 1424.08 121.333 1423.61 120.48C1423.14 119.613 1422.91 118.607 1422.91 117.46ZM1440.58 123.18C1439.51 123.18 1438.55 122.947 1437.7 122.48C1436.85 122 1436.17 121.327 1435.68 120.46C1435.2 119.593 1434.96 118.593 1434.96 117.46C1434.96 116.327 1435.21 115.327 1435.7 114.46C1436.21 113.593 1436.89 112.927 1437.76 112.46C1438.63 111.98 1439.59 111.74 1440.66 111.74C1441.73 111.74 1442.69 111.98 1443.56 112.46C1444.43 112.927 1445.11 113.593 1445.6 114.46C1446.11 115.327 1446.36 116.327 1446.36 117.46C1446.36 118.593 1446.1 119.593 1445.58 120.46C1445.07 121.327 1444.38 122 1443.5 122.48C1442.63 122.947 1441.66 123.18 1440.58 123.18ZM1440.58 120.74C1441.09 120.74 1441.56 120.62 1442 120.38C1442.45 120.127 1442.81 119.753 1443.08 119.26C1443.35 118.767 1443.48 118.167 1443.48 117.46C1443.48 116.407 1443.2 115.6 1442.64 115.04C1442.09 114.467 1441.42 114.18 1440.62 114.18C1439.82 114.18 1439.15 114.467 1438.6 115.04C1438.07 115.6 1437.8 116.407 1437.8 117.46C1437.8 118.513 1438.06 119.327 1438.58 119.9C1439.11 120.46 1439.78 120.74 1440.58 120.74ZM1462.18 111.76C1463.54 111.76 1464.63 112.18 1465.46 113.02C1466.3 113.847 1466.72 115.007 1466.72 116.5V123H1463.92V116.88C1463.92 116.013 1463.7 115.353 1463.26 114.9C1462.82 114.433 1462.22 114.2 1461.46 114.2C1460.7 114.2 1460.09 114.433 1459.64 114.9C1459.2 115.353 1458.98 116.013 1458.98 116.88V123H1456.18V116.88C1456.18 116.013 1455.96 115.353 1455.52 114.9C1455.08 114.433 1454.48 114.2 1453.72 114.2C1452.94 114.2 1452.33 114.433 1451.88 114.9C1451.44 115.353 1451.22 116.013 1451.22 116.88V123H1448.42V111.92H1451.22V113.26C1451.58 112.793 1452.04 112.427 1452.6 112.16C1453.17 111.893 1453.8 111.76 1454.48 111.76C1455.34 111.76 1456.12 111.947 1456.8 112.32C1457.48 112.68 1458 113.2 1458.38 113.88C1458.74 113.24 1459.26 112.727 1459.94 112.34C1460.63 111.953 1461.38 111.76 1462.18 111.76Z" fill="#666666"/>
<path d="M501.1 163.25C504.8 163.25 508.033 163.967 510.8 165.4C513.6 166.8 515.75 168.833 517.25 171.5C518.783 174.133 519.55 177.217 519.55 180.75C519.55 184.283 518.783 187.35 517.25 189.95C515.75 192.55 513.6 194.55 510.8 195.95C508.033 197.317 504.8 198 501.1 198H489.75V163.25H501.1ZM501.1 193.35C505.167 193.35 508.283 192.25 510.45 190.05C512.617 187.85 513.7 184.75 513.7 180.75C513.7 176.717 512.617 173.567 510.45 171.3C508.283 169.033 505.167 167.9 501.1 167.9H495.45V193.35H501.1ZM550.449 183.55C550.449 184.583 550.383 185.517 550.249 186.35H529.199C529.366 188.55 530.183 190.317 531.649 191.65C533.116 192.983 534.916 193.65 537.049 193.65C540.116 193.65 542.283 192.367 543.549 189.8H549.699C548.866 192.333 547.349 194.417 545.149 196.05C542.983 197.65 540.283 198.45 537.049 198.45C534.416 198.45 532.049 197.867 529.949 196.7C527.883 195.5 526.249 193.833 525.049 191.7C523.883 189.533 523.299 187.033 523.299 184.2C523.299 181.367 523.866 178.883 524.999 176.75C526.166 174.583 527.783 172.917 529.849 171.75C531.949 170.583 534.349 170 537.049 170C539.649 170 541.966 170.567 543.999 171.7C546.033 172.833 547.616 174.433 548.749 176.5C549.883 178.533 550.449 180.883 550.449 183.55ZM544.499 181.75C544.466 179.65 543.716 177.967 542.249 176.7C540.783 175.433 538.966 174.8 536.799 174.8C534.833 174.8 533.149 175.433 531.749 176.7C530.349 177.933 529.516 179.617 529.249 181.75H544.499ZM566.059 198.45C563.892 198.45 561.942 198.067 560.209 197.3C558.509 196.5 557.159 195.433 556.159 194.1C555.159 192.733 554.625 191.217 554.559 189.55H560.459C560.559 190.717 561.109 191.7 562.109 192.5C563.142 193.267 564.425 193.65 565.959 193.65C567.559 193.65 568.792 193.35 569.659 192.75C570.559 192.117 571.009 191.317 571.009 190.35C571.009 189.317 570.509 188.55 569.509 188.05C568.542 187.55 566.992 187 564.859 186.4C562.792 185.833 561.109 185.283 559.809 184.75C558.509 184.217 557.375 183.4 556.409 182.3C555.475 181.2 555.009 179.75 555.009 177.95C555.009 176.483 555.442 175.15 556.309 173.95C557.175 172.717 558.409 171.75 560.009 171.05C561.642 170.35 563.509 170 565.609 170C568.742 170 571.259 170.8 573.159 172.4C575.092 173.967 576.125 176.117 576.259 178.85H570.559C570.459 177.617 569.959 176.633 569.059 175.9C568.159 175.167 566.942 174.8 565.409 174.8C563.909 174.8 562.759 175.083 561.959 175.65C561.159 176.217 560.759 176.967 560.759 177.9C560.759 178.633 561.025 179.25 561.559 179.75C562.092 180.25 562.742 180.65 563.509 180.95C564.275 181.217 565.409 181.567 566.909 182C568.909 182.533 570.542 183.083 571.809 183.65C573.109 184.183 574.225 184.983 575.159 186.05C576.092 187.117 576.575 188.533 576.609 190.3C576.609 191.867 576.175 193.267 575.309 194.5C574.442 195.733 573.209 196.7 571.609 197.4C570.042 198.1 568.192 198.45 566.059 198.45ZM608.018 183.55C608.018 184.583 607.951 185.517 607.818 186.35H586.768C586.934 188.55 587.751 190.317 589.218 191.65C590.684 192.983 592.484 193.65 594.618 193.65C597.684 193.65 599.851 192.367 601.118 189.8H607.268C606.434 192.333 604.918 194.417 602.718 196.05C600.551 197.65 597.851 198.45 594.618 198.45C591.984 198.45 589.618 197.867 587.518 196.7C585.451 195.5 583.818 193.833 582.618 191.7C581.451 189.533 580.868 187.033 580.868 184.2C580.868 181.367 581.434 178.883 582.568 176.75C583.734 174.583 585.351 172.917 587.418 171.75C589.518 170.583 591.918 170 594.618 170C597.218 170 599.534 170.567 601.568 171.7C603.601 172.833 605.184 174.433 606.318 176.5C607.451 178.533 608.018 180.883 608.018 183.55ZM602.068 181.75C602.034 179.65 601.284 177.967 599.818 176.7C598.351 175.433 596.534 174.8 594.368 174.8C592.401 174.8 590.718 175.433 589.318 176.7C587.918 177.933 587.084 179.617 586.818 181.75H602.068ZM627.527 170C629.694 170 631.627 170.45 633.327 171.35C635.06 172.25 636.41 173.583 637.377 175.35C638.344 177.117 638.827 179.25 638.827 181.75V198H633.177V182.6C633.177 180.133 632.56 178.25 631.327 176.95C630.094 175.617 628.41 174.95 626.277 174.95C624.144 174.95 622.444 175.617 621.177 176.95C619.944 178.25 619.327 180.133 619.327 182.6V198H613.627V170.45H619.327V173.6C620.26 172.467 621.444 171.583 622.877 170.95C624.344 170.317 625.894 170 627.527 170ZM656.748 192.9L664.548 170.45H670.598L660.098 198H653.298L642.848 170.45H648.948L656.748 192.9ZM686.856 198.45C684.256 198.45 681.906 197.867 679.806 196.7C677.706 195.5 676.056 193.833 674.856 191.7C673.656 189.533 673.056 187.033 673.056 184.2C673.056 181.4 673.673 178.917 674.906 176.75C676.14 174.583 677.823 172.917 679.956 171.75C682.09 170.583 684.473 170 687.106 170C689.74 170 692.123 170.583 694.256 171.75C696.39 172.917 698.073 174.583 699.306 176.75C700.54 178.917 701.156 181.4 701.156 184.2C701.156 187 700.523 189.483 699.256 191.65C697.99 193.817 696.256 195.5 694.056 196.7C691.89 197.867 689.49 198.45 686.856 198.45ZM686.856 193.5C688.323 193.5 689.69 193.15 690.956 192.45C692.256 191.75 693.306 190.7 694.106 189.3C694.906 187.9 695.306 186.2 695.306 184.2C695.306 182.2 694.923 180.517 694.156 179.15C693.39 177.75 692.373 176.7 691.106 176C689.84 175.3 688.473 174.95 687.006 174.95C685.54 174.95 684.173 175.3 682.906 176C681.673 176.7 680.69 177.75 679.956 179.15C679.223 180.517 678.856 182.2 678.856 184.2C678.856 187.167 679.606 189.467 681.106 191.1C682.64 192.7 684.556 193.5 686.856 193.5ZM712.491 161V198H706.791V161H712.491ZM730.625 192.9L738.425 170.45H744.475L733.975 198H727.175L716.725 170.45H722.825L730.625 192.9ZM774.033 183.55C774.033 184.583 773.967 185.517 773.833 186.35H752.783C752.95 188.55 753.767 190.317 755.233 191.65C756.7 192.983 758.5 193.65 760.633 193.65C763.7 193.65 765.867 192.367 767.133 189.8H773.283C772.45 192.333 770.933 194.417 768.733 196.05C766.567 197.65 763.867 198.45 760.633 198.45C758 198.45 755.633 197.867 753.533 196.7C751.467 195.5 749.833 193.833 748.633 191.7C747.467 189.533 746.883 187.033 746.883 184.2C746.883 181.367 747.45 178.883 748.583 176.75C749.75 174.583 751.367 172.917 753.433 171.75C755.533 170.583 757.933 170 760.633 170C763.233 170 765.55 170.567 767.583 171.7C769.617 172.833 771.2 174.433 772.333 176.5C773.467 178.533 774.033 180.883 774.033 183.55ZM768.083 181.75C768.05 179.65 767.3 177.967 765.833 176.7C764.367 175.433 762.55 174.8 760.383 174.8C758.417 174.8 756.733 175.433 755.333 176.7C753.933 177.933 753.1 179.617 752.833 181.75H768.083ZM777.743 184.1C777.743 181.333 778.309 178.883 779.443 176.75C780.609 174.617 782.176 172.967 784.143 171.8C786.143 170.6 788.359 170 790.793 170C792.593 170 794.359 170.4 796.093 171.2C797.859 171.967 799.259 173 800.293 174.3V161H806.043V198H800.293V193.85C799.359 195.183 798.059 196.283 796.393 197.15C794.759 198.017 792.876 198.45 790.743 198.45C788.343 198.45 786.143 197.85 784.143 196.65C782.176 195.417 780.609 193.717 779.443 191.55C778.309 189.35 777.743 186.867 777.743 184.1ZM800.293 184.2C800.293 182.3 799.893 180.65 799.093 179.25C798.326 177.85 797.309 176.783 796.043 176.05C794.776 175.317 793.409 174.95 791.943 174.95C790.476 174.95 789.109 175.317 787.843 176.05C786.576 176.75 785.543 177.8 784.743 179.2C783.976 180.567 783.593 182.2 783.593 184.1C783.593 186 783.976 187.667 784.743 189.1C785.543 190.533 786.576 191.633 787.843 192.4C789.143 193.133 790.509 193.5 791.943 193.5C793.409 193.5 794.776 193.133 796.043 192.4C797.309 191.667 798.326 190.6 799.093 189.2C799.893 187.767 800.293 186.1 800.293 184.2ZM825.479 198.45C822.879 198.45 820.529 197.867 818.429 196.7C816.329 195.5 814.679 193.833 813.479 191.7C812.279 189.533 811.679 187.033 811.679 184.2C811.679 181.4 812.296 178.917 813.529 176.75C814.763 174.583 816.446 172.917 818.579 171.75C820.713 170.583 823.096 170 825.729 170C828.363 170 830.746 170.583 832.879 171.75C835.013 172.917 836.696 174.583 837.929 176.75C839.163 178.917 839.779 181.4 839.779 184.2C839.779 187 839.146 189.483 837.879 191.65C836.613 193.817 834.879 195.5 832.679 196.7C830.513 197.867 828.113 198.45 825.479 198.45ZM825.479 193.5C826.946 193.5 828.313 193.15 829.579 192.45C830.879 191.75 831.929 190.7 832.729 189.3C833.529 187.9 833.929 186.2 833.929 184.2C833.929 182.2 833.546 180.517 832.779 179.15C832.013 177.75 830.996 176.7 829.729 176C828.463 175.3 827.096 174.95 825.629 174.95C824.163 174.95 822.796 175.3 821.529 176C820.296 176.7 819.313 177.75 818.579 179.15C817.846 180.517 817.479 182.2 817.479 184.2C817.479 187.167 818.229 189.467 819.729 191.1C821.263 192.7 823.179 193.5 825.479 193.5ZM851.114 174.45C851.947 173.05 853.047 171.967 854.414 171.2C855.814 170.4 857.464 170 859.364 170V175.9H857.914C855.681 175.9 853.981 176.467 852.814 177.6C851.681 178.733 851.114 180.7 851.114 183.5V198H845.414V170.45H851.114V174.45ZM516.6 273L512.3 268.7C510.633 270.367 508.817 271.617 506.85 272.45C504.883 273.25 502.683 273.65 500.25 273.65C497.783 273.65 495.6 273.217 493.7 272.35C491.8 271.483 490.333 270.25 489.3 268.65C488.267 267.017 487.75 265.133 487.75 263C487.75 260.6 488.433 258.467 489.8 256.6C491.167 254.7 493.2 253.2 495.9 252.1C494.933 250.933 494.25 249.85 493.85 248.85C493.45 247.817 493.25 246.683 493.25 245.45C493.25 243.917 493.633 242.55 494.4 241.35C495.2 240.15 496.333 239.2 497.8 238.5C499.267 237.8 500.967 237.45 502.9 237.45C504.867 237.45 506.533 237.833 507.9 238.6C509.3 239.333 510.333 240.35 511 241.65C511.7 242.95 511.983 244.4 511.85 246H506.15C506.183 244.767 505.883 243.817 505.25 243.15C504.617 242.45 503.75 242.1 502.65 242.1C501.55 242.1 500.65 242.433 499.95 243.1C499.283 243.733 498.95 244.517 498.95 245.45C498.95 246.35 499.2 247.25 499.7 248.15C500.233 249.017 501.15 250.15 502.45 251.55L511.65 260.7L515.2 254.85H521.35L516.85 262.55L515.6 264.6L524.05 273H516.6ZM500.25 268.8C503.383 268.8 506.15 267.517 508.55 264.95L499.35 255.7C495.417 257.267 493.45 259.633 493.45 262.8C493.45 264.5 494.083 265.933 495.35 267.1C496.617 268.233 498.25 268.8 500.25 268.8Z" fill="white"/>
<path d="M899.468 162.75V170.55H885.368V176.75H895.768V184.2H885.368V198H875.568V162.75H899.468ZM913.395 174.9C914.495 173.3 915.828 172.033 917.395 171.1C918.962 170.167 920.645 169.7 922.445 169.7V180.15H919.695C917.562 180.15 915.978 180.567 914.945 181.4C913.912 182.233 913.395 183.683 913.395 185.75V198H903.595V169.95H913.395V174.9ZM939.008 198.35C936.208 198.35 933.692 197.767 931.458 196.6C929.258 195.433 927.525 193.767 926.258 191.6C924.992 189.433 924.358 186.883 924.358 183.95C924.358 181.05 924.992 178.517 926.258 176.35C927.558 174.183 929.308 172.517 931.508 171.35C933.742 170.183 936.258 169.6 939.058 169.6C941.858 169.6 944.358 170.183 946.558 171.35C948.792 172.517 950.542 174.183 951.808 176.35C953.108 178.517 953.758 181.05 953.758 183.95C953.758 186.85 953.108 189.4 951.808 191.6C950.542 193.767 948.792 195.433 946.558 196.6C944.325 197.767 941.808 198.35 939.008 198.35ZM939.008 189.85C940.375 189.85 941.508 189.35 942.408 188.35C943.342 187.317 943.808 185.85 943.808 183.95C943.808 182.05 943.342 180.6 942.408 179.6C941.508 178.6 940.392 178.1 939.058 178.1C937.725 178.1 936.608 178.6 935.708 179.6C934.808 180.6 934.358 182.05 934.358 183.95C934.358 185.883 934.792 187.35 935.658 188.35C936.525 189.35 937.642 189.85 939.008 189.85ZM976.095 169.7C979.329 169.7 981.895 170.783 983.795 172.95C985.695 175.083 986.645 177.983 986.645 181.65V198H976.845V182.95C976.845 181.35 976.429 180.1 975.595 179.2C974.762 178.267 973.645 177.8 972.245 177.8C970.779 177.8 969.629 178.267 968.795 179.2C967.962 180.1 967.545 181.35 967.545 182.95V198H957.745V169.95H967.545V173.95C968.412 172.683 969.579 171.667 971.045 170.9C972.512 170.1 974.195 169.7 976.095 169.7ZM1008.57 189.65V198H1004.32C997.156 198 993.573 194.45 993.573 187.35V178.1H990.123V169.95H993.573V163.15H1003.42V169.95H1008.52V178.1H1003.42V187.5C1003.42 188.267 1003.59 188.817 1003.92 189.15C1004.29 189.483 1004.89 189.65 1005.72 189.65H1008.57ZM1032.44 170.6V176.35H1043.69V183.8H1032.44V190.15H1045.19V198H1022.64V162.75H1045.19V170.6H1032.44ZM1068.38 169.7C1071.61 169.7 1074.18 170.783 1076.08 172.95C1077.98 175.083 1078.93 177.983 1078.93 181.65V198H1069.13V182.95C1069.13 181.35 1068.71 180.1 1067.88 179.2C1067.05 178.267 1065.93 177.8 1064.53 177.8C1063.06 177.8 1061.91 178.267 1061.08 179.2C1060.25 180.1 1059.83 181.35 1059.83 182.95V198H1050.03V169.95H1059.83V173.95C1060.7 172.683 1061.86 171.667 1063.33 170.9C1064.8 170.1 1066.48 169.7 1068.38 169.7ZM1082.71 183.95C1082.71 181.05 1083.22 178.517 1084.26 176.35C1085.32 174.183 1086.77 172.517 1088.61 171.35C1090.44 170.183 1092.47 169.6 1094.71 169.6C1096.51 169.6 1098.11 169.983 1099.51 170.75C1100.94 171.483 1102.06 172.5 1102.86 173.8V161H1112.71V198H1102.86V194.1C1102.09 195.4 1101.01 196.433 1099.61 197.2C1098.21 197.967 1096.56 198.35 1094.66 198.35C1092.42 198.35 1090.39 197.767 1088.56 196.6C1086.76 195.433 1085.32 193.767 1084.26 191.6C1083.22 189.4 1082.71 186.85 1082.71 183.95ZM1102.91 183.95C1102.91 182.15 1102.41 180.733 1101.41 179.7C1100.44 178.667 1099.24 178.15 1097.81 178.15C1096.34 178.15 1095.12 178.667 1094.16 179.7C1093.19 180.7 1092.71 182.117 1092.71 183.95C1092.71 185.75 1093.19 187.183 1094.16 188.25C1095.12 189.283 1096.34 189.8 1097.81 189.8C1099.24 189.8 1100.44 189.283 1101.41 188.25C1102.41 187.217 1102.91 185.783 1102.91 183.95ZM548.351 237.75V258.2C548.351 260.1 548.785 261.567 549.651 262.6C550.551 263.633 551.901 264.15 553.701 264.15C555.501 264.15 556.851 263.633 557.751 262.6C558.685 261.533 559.151 260.067 559.151 258.2V237.75H568.951V258.2C568.951 261.433 568.268 264.2 566.901 266.5C565.535 268.767 563.668 270.483 561.301 271.65C558.968 272.783 556.368 273.35 553.501 273.35C550.635 273.35 548.068 272.783 545.801 271.65C543.568 270.483 541.801 268.767 540.501 266.5C539.235 264.233 538.601 261.467 538.601 258.2V237.75H548.351ZM584.147 237.75V273H574.347V237.75H584.147ZM609.078 225.4L595.728 282.65H586.278L599.628 225.4H609.078ZM620.617 237.75V258.2C620.617 260.1 621.05 261.567 621.917 262.6C622.817 263.633 624.167 264.15 625.967 264.15C627.767 264.15 629.117 263.633 630.017 262.6C630.95 261.533 631.417 260.067 631.417 258.2V237.75H641.217V258.2C641.217 261.433 640.533 264.2 639.167 266.5C637.8 268.767 635.933 270.483 633.567 271.65C631.233 272.783 628.633 273.35 625.767 273.35C622.9 273.35 620.333 272.783 618.067 271.65C615.833 270.483 614.067 268.767 612.767 266.5C611.5 264.233 610.867 261.467 610.867 258.2V237.75H620.617ZM668.663 273L661.813 263.05L655.963 273H644.813L656.263 254.95L644.413 237.75H655.963L662.613 247.45L668.313 237.75H679.463L668.163 255.5L680.213 273H668.663ZM707.096 237.75C710.796 237.75 714.029 238.5 716.796 240C719.596 241.467 721.746 243.533 723.246 246.2C724.746 248.867 725.496 251.917 725.496 255.35C725.496 258.75 724.729 261.783 723.196 264.45C721.696 267.117 719.546 269.217 716.746 270.75C713.979 272.25 710.762 273 707.096 273H693.146V237.75H707.096ZM706.346 264.35C709.212 264.35 711.462 263.567 713.096 262C714.729 260.433 715.546 258.217 715.546 255.35C715.546 252.45 714.729 250.217 713.096 248.65C711.462 247.05 709.212 246.25 706.346 246.25H702.946V264.35H706.346ZM756.713 258.65C756.713 259.417 756.663 260.183 756.563 260.95H738.013C738.113 262.483 738.53 263.633 739.263 264.4C740.03 265.133 740.997 265.5 742.163 265.5C743.797 265.5 744.963 264.767 745.663 263.3H756.113C755.68 265.233 754.83 266.967 753.563 268.5C752.33 270 750.763 271.183 748.863 272.05C746.963 272.917 744.863 273.35 742.563 273.35C739.797 273.35 737.33 272.767 735.163 271.6C733.03 270.433 731.347 268.767 730.113 266.6C728.913 264.433 728.313 261.883 728.313 258.95C728.313 256.017 728.913 253.483 730.113 251.35C731.313 249.183 732.98 247.517 735.113 246.35C737.28 245.183 739.763 244.6 742.563 244.6C745.33 244.6 747.78 245.167 749.913 246.3C752.047 247.433 753.713 249.067 754.913 251.2C756.113 253.3 756.713 255.783 756.713 258.65ZM746.713 256.2C746.713 255 746.313 254.067 745.513 253.4C744.713 252.7 743.713 252.35 742.513 252.35C741.313 252.35 740.33 252.683 739.563 253.35C738.797 253.983 738.297 254.933 738.063 256.2H746.713ZM772.674 273.35C770.14 273.35 767.874 272.933 765.874 272.1C763.907 271.233 762.34 270.067 761.174 268.6C760.04 267.1 759.407 265.417 759.274 263.55H768.774C768.907 264.45 769.324 265.15 770.024 265.65C770.724 266.15 771.59 266.4 772.624 266.4C773.424 266.4 774.057 266.233 774.524 265.9C774.99 265.567 775.224 265.133 775.224 264.6C775.224 263.9 774.84 263.383 774.074 263.05C773.307 262.717 772.04 262.35 770.274 261.95C768.274 261.55 766.607 261.1 765.274 260.6C763.94 260.1 762.774 259.283 761.774 258.15C760.807 257.017 760.324 255.483 760.324 253.55C760.324 251.883 760.774 250.383 761.674 249.05C762.574 247.683 763.89 246.6 765.624 245.8C767.39 245 769.507 244.6 771.974 244.6C775.64 244.6 778.524 245.5 780.624 247.3C782.724 249.1 783.94 251.467 784.274 254.4H775.424C775.257 253.5 774.857 252.817 774.224 252.35C773.624 251.85 772.807 251.6 771.774 251.6C770.974 251.6 770.357 251.75 769.924 252.05C769.524 252.35 769.324 252.767 769.324 253.3C769.324 253.967 769.707 254.483 770.474 254.85C771.24 255.183 772.474 255.533 774.174 255.9C776.207 256.333 777.89 256.817 779.224 257.35C780.59 257.883 781.774 258.75 782.774 259.95C783.807 261.117 784.324 262.717 784.324 264.75C784.324 266.383 783.84 267.85 782.874 269.15C781.94 270.45 780.59 271.483 778.824 272.25C777.09 272.983 775.04 273.35 772.674 273.35ZM794.092 242.35C792.358 242.35 790.958 241.883 789.892 240.95C788.858 239.983 788.342 238.783 788.342 237.35C788.342 235.883 788.858 234.667 789.892 233.7C790.958 232.733 792.358 232.25 794.092 232.25C795.792 232.25 797.158 232.733 798.192 233.7C799.258 234.667 799.792 235.883 799.792 237.35C799.792 238.783 799.258 239.983 798.192 240.95C797.158 241.883 795.792 242.35 794.092 242.35ZM798.942 244.95V273H789.142V244.95H798.942ZM814.873 244.6C816.773 244.6 818.423 244.983 819.823 245.75C821.256 246.517 822.356 247.55 823.123 248.85V244.95H832.923V272.7C832.923 275.333 832.423 277.7 831.423 279.8C830.423 281.933 828.856 283.633 826.723 284.9C824.623 286.167 821.956 286.8 818.723 286.8C814.389 286.8 810.923 285.783 808.323 283.75C805.723 281.717 804.239 278.95 803.873 275.45H813.523C813.723 276.35 814.223 277.05 815.023 277.55C815.823 278.05 816.856 278.3 818.123 278.3C821.456 278.3 823.123 276.433 823.123 272.7V269.1C822.356 270.4 821.256 271.433 819.823 272.2C818.423 272.967 816.773 273.35 814.873 273.35C812.639 273.35 810.606 272.767 808.773 271.6C806.973 270.433 805.539 268.767 804.473 266.6C803.439 264.4 802.923 261.85 802.923 258.95C802.923 256.05 803.439 253.517 804.473 251.35C805.539 249.183 806.973 247.517 808.773 246.35C810.606 245.183 812.639 244.6 814.873 244.6ZM823.123 258.95C823.123 257.15 822.623 255.733 821.623 254.7C820.656 253.667 819.456 253.15 818.023 253.15C816.556 253.15 815.339 253.667 814.373 254.7C813.406 255.7 812.923 257.117 812.923 258.95C812.923 260.75 813.406 262.183 814.373 263.25C815.339 264.283 816.556 264.8 818.023 264.8C819.456 264.8 820.656 264.283 821.623 263.25C822.623 262.217 823.123 260.783 823.123 258.95ZM856.857 244.7C860.09 244.7 862.657 245.783 864.557 247.95C866.457 250.083 867.407 252.983 867.407 256.65V273H857.607V257.95C857.607 256.35 857.19 255.1 856.357 254.2C855.524 253.267 854.407 252.8 853.007 252.8C851.54 252.8 850.39 253.267 849.557 254.2C848.724 255.1 848.307 256.35 848.307 257.95V273H838.507V244.95H848.307V248.95C849.174 247.683 850.34 246.667 851.807 245.9C853.274 245.1 854.957 244.7 856.857 244.7ZM899.584 258.65C899.584 259.417 899.534 260.183 899.434 260.95H880.884C880.984 262.483 881.401 263.633 882.134 264.4C882.901 265.133 883.868 265.5 885.034 265.5C886.668 265.5 887.834 264.767 888.534 263.3H898.984C898.551 265.233 897.701 266.967 896.434 268.5C895.201 270 893.634 271.183 891.734 272.05C889.834 272.917 887.734 273.35 885.434 273.35C882.668 273.35 880.201 272.767 878.034 271.6C875.901 270.433 874.218 268.767 872.984 266.6C871.784 264.433 871.184 261.883 871.184 258.95C871.184 256.017 871.784 253.483 872.984 251.35C874.184 249.183 875.851 247.517 877.984 246.35C880.151 245.183 882.634 244.6 885.434 244.6C888.201 244.6 890.651 245.167 892.784 246.3C894.918 247.433 896.584 249.067 897.784 251.2C898.984 253.3 899.584 255.783 899.584 258.65ZM889.584 256.2C889.584 255 889.184 254.067 888.384 253.4C887.584 252.7 886.584 252.35 885.384 252.35C884.184 252.35 883.201 252.683 882.434 253.35C881.668 253.983 881.168 254.933 880.934 256.2H889.584ZM913.395 249.9C914.495 248.3 915.828 247.033 917.395 246.1C918.962 245.167 920.645 244.7 922.445 244.7V255.15H919.695C917.562 255.15 915.978 255.567 914.945 256.4C913.912 257.233 913.395 258.683 913.395 260.75V273H903.595V244.95H913.395V249.9Z" fill="#FF5C00"/>
<g filter="url(#filter0_dddddd_120_46)">
<circle cx="733.602" cy="101.602" r="21.3977" fill="white"/>
<g clip-path="url(#clip1_120_46)">
<path d="M729.9 113.673C732.095 113.673 733.877 111.87 733.877 109.649V105.626H729.9C727.705 105.626 725.923 107.428 725.923 109.649C725.923 111.87 727.705 113.673 729.9 113.673Z" fill="#0ACF83"/>
<path d="M725.923 101.602C725.923 99.3813 727.705 97.5787 729.9 97.5787H733.877V105.626H729.9C727.705 105.626 725.923 103.823 725.923 101.602Z" fill="#A259FF"/>
<path d="M725.924 93.5553C725.924 91.3343 727.706 89.5318 729.901 89.5318H733.878V97.5788H729.901C727.706 97.5788 725.924 95.7763 725.924 93.5553Z" fill="#F24E1E"/>
<path d="M733.877 89.5318H737.854C740.049 89.5318 741.831 91.3343 741.831 93.5553C741.831 95.7763 740.049 97.5788 737.854 97.5788H733.877V89.5318Z" fill="#FF7262"/>
<path d="M741.831 101.602C741.831 103.823 740.049 105.626 737.854 105.626C735.658 105.626 733.877 103.823 733.877 101.602C733.877 99.3813 735.658 97.5787 737.854 97.5787C740.049 97.5787 741.831 99.3813 741.831 101.602Z" fill="#1ABCFE"/>
</g>
</g>
<g filter="url(#filter1_dddddd_120_46)">
<circle cx="620.5" cy="101.602" r="21.3977" fill="white"/>
<rect x="610.075" y="90.6292" width="21.3977" height="21.3977" rx="10" fill="#F0DB4F"/>
<path d="M627.982 105.955C627.854 105.161 627.336 104.494 625.802 103.871C625.269 103.626 624.675 103.451 624.498 103.047C624.435 102.812 624.426 102.679 624.466 102.537C624.58 102.075 625.132 101.931 625.569 102.064C625.85 102.158 626.116 102.375 626.277 102.721C627.028 102.234 627.027 102.238 627.552 101.903C627.36 101.605 627.257 101.468 627.131 101.34C626.679 100.836 626.063 100.576 625.079 100.596C624.908 100.617 624.736 100.64 624.565 100.662C624.074 100.786 623.605 101.044 623.331 101.39C622.506 102.325 622.741 103.962 623.744 104.636C624.733 105.378 626.184 105.546 626.37 106.24C626.55 107.089 625.746 107.364 624.946 107.266C624.357 107.144 624.029 106.844 623.675 106.3C623.023 106.677 623.023 106.677 622.352 107.063C622.511 107.41 622.678 107.567 622.945 107.869C624.206 109.148 627.363 109.085 627.929 107.149C627.952 107.082 628.104 106.639 627.982 105.955V105.955ZM621.46 100.698H619.831C619.831 102.105 619.825 103.502 619.825 104.909C619.825 105.805 619.871 106.626 619.725 106.877C619.487 107.372 618.87 107.311 618.588 107.215C618.302 107.074 618.156 106.874 617.987 106.591C617.941 106.51 617.906 106.447 617.895 106.442C617.453 106.712 617.013 106.983 616.571 107.253C616.791 107.705 617.115 108.097 617.531 108.352C618.151 108.724 618.986 108.839 619.858 108.638C620.426 108.473 620.916 108.13 621.172 107.609C621.543 106.925 621.464 106.098 621.46 105.182C621.468 103.689 621.46 102.196 621.46 100.698Z" fill="#323330"/>
</g>
<g filter="url(#filter2_dddddd_120_46)">
<circle cx="677.051" cy="101.602" r="21.3977" fill="white"/>
<g clip-path="url(#clip2_120_46)">
<path fill-rule="evenodd" clip-rule="evenodd" d="M669.674 91.1807C668.234 91.1807 667.168 92.4875 667.216 93.9046C667.262 95.2661 667.202 97.0295 666.774 98.4675C666.344 99.9095 665.618 100.823 664.432 100.941V102.265C665.618 102.382 666.344 103.296 666.774 104.738C667.202 106.176 667.262 107.939 667.216 109.301C667.168 110.718 668.234 112.025 669.674 112.025H684.43C685.87 112.025 686.936 110.718 686.888 109.301C686.842 107.939 686.902 106.176 687.33 104.738C687.759 103.296 688.484 102.382 689.67 102.265V100.941C688.484 100.823 687.759 99.9097 687.33 98.4675C686.901 97.0297 686.842 95.2661 686.888 93.9046C686.936 92.4877 685.87 91.1807 684.43 91.1807H669.674H669.674ZM681.543 104.012C681.543 105.963 680.139 107.146 677.809 107.146H673.843C673.729 107.146 673.621 107.1 673.54 107.017C673.46 106.933 673.415 106.821 673.415 106.703V96.5026C673.415 96.385 673.46 96.2722 673.54 96.189C673.621 96.1059 673.729 96.0592 673.843 96.0592H677.786C679.729 96.0592 681.004 97.1502 681.004 98.8252C681.004 100.001 680.146 101.053 679.054 101.238V101.299C680.541 101.468 681.543 102.536 681.543 104.012V104.012ZM677.376 97.465H675.115V100.777H677.02C678.492 100.777 679.304 100.162 679.304 99.0632C679.304 98.0336 678.606 97.465 677.376 97.465ZM675.115 102.091V105.74H677.46C678.993 105.74 679.805 105.102 679.805 103.904C679.805 102.705 678.97 102.09 677.361 102.09H675.115V102.091Z" fill="#7952B3"/>
</g>
</g>
<g filter="url(#filter3_dddddd_120_46)">
<circle cx="507.398" cy="101.602" r="21.3977" fill="white"/>
</g>
<g clip-path="url(#clip3_120_46)">
<path d="M513.082 90.9034H501.714C498.944 90.9034 496.699 93.1488 496.699 95.9185V107.286C496.699 110.056 498.944 112.301 501.714 112.301H513.082C515.851 112.301 518.097 110.056 518.097 107.286V95.9185C518.097 93.1488 515.851 90.9034 513.082 90.9034Z" fill="#E14E1D"/>
<path d="M500.711 94.0797L501.431 102.153H510.684L510.374 105.616L507.394 106.422L504.42 105.617L504.222 103.394H501.542L501.925 107.68L507.394 109.199L512.869 107.68L513.603 99.4839H503.872L503.628 96.7498H513.845L514.085 94.0797H500.711Z" fill="white"/>
<path d="M507.398 94.0797H500.711L501.431 102.153H507.398V99.4839H503.872L503.628 96.7498H507.398V94.0797ZM507.398 106.421L507.394 106.422L504.42 105.617L504.222 103.394H501.542L501.925 107.68L507.394 109.199L507.398 109.198L507.398 106.421Z" fill="#EBEBEB"/>
</g>
<g filter="url(#filter4_dddddd_120_46)">
<circle cx="563.949" cy="101.602" r="21.3977" fill="white"/>
</g>
<g clip-path="url(#clip4_120_46)">
<path d="M569.633 90.9034H558.265C555.496 90.9034 553.25 93.1488 553.25 95.9185V107.286C553.25 110.056 555.496 112.301 558.265 112.301H569.633C572.403 112.301 574.648 110.056 574.648 107.286V95.9185C574.648 93.1488 572.403 90.9034 569.633 90.9034Z" fill="#0277BD"/>
<path d="M557.743 99.4835L557.982 102.153H563.957V99.4835H557.743ZM563.957 94.0797H557.262L557.505 96.7495H563.957V94.0797ZM563.957 109.195V106.417L563.945 106.421L560.972 105.618L560.782 103.488H558.102L558.476 107.68L563.945 109.199L563.957 109.195Z" fill="#EBEBEB"/>
<path d="M567.235 102.153L566.925 105.616L563.948 106.42V109.197L569.421 107.68L569.461 107.229L570.089 100.201L570.154 99.4835L570.636 94.0797H563.948V96.7495H567.71L567.467 99.4835H563.948V102.153H567.235Z" fill="white"/>
</g>
<mask id="mask0_120_46" style="mask-type:alpha" maskUnits="userSpaceOnUse" x="202" y="129" width="1036" height="642">
<rect x="203" y="130" width="49.2311" height="49.2311" stroke="white" stroke-opacity="0.04" stroke-width="0.984621"/>
<rect x="252.231" y="130" width="49.2311" height="49.2311" stroke="white" stroke-opacity="0.04" stroke-width="0.984621"/>
<rect x="301.462" y="130" width="49.2311" height="49.2311" stroke="white" stroke-opacity="0.04" stroke-width="0.984621"/>
<rect x="350.693" y="130" width="49.2311" height="49.2311" stroke="white" stroke-opacity="0.04" stroke-width="0.984621"/>
<rect x="399.924" y="130" width="49.2311" height="49.2311" stroke="white" stroke-opacity="0.04" stroke-width="0.984621"/>
<rect x="449.155" y="130" width="49.2311" height="49.2311" stroke="white" stroke-opacity="0.04" stroke-width="0.984621"/>
<rect x="498.386" y="130" width="49.2311" height="49.2311" stroke="white" stroke-opacity="0.04" stroke-width="0.984621"/>
<rect x="547.617" y="130" width="49.2311" height="49.2311" stroke="white" stroke-opacity="0.04" stroke-width="0.984621"/>
<rect x="596.849" y="130" width="49.2311" height="49.2311" stroke="white" stroke-opacity="0.04" stroke-width="0.984621"/>
<rect x="646.08" y="130" width="49.2311" height="49.2311" stroke="white" stroke-opacity="0.04" stroke-width="0.984621"/>
<rect x="695.311" y="130" width="49.2311" height="49.2311" stroke="white" stroke-opacity="0.04" stroke-width="0.984621"/>
<rect x="744.542" y="130" width="49.2311" height="49.2311" stroke="white" stroke-opacity="0.04" stroke-width="0.984621"/>
<rect x="793.773" y="130" width="49.2311" height="49.2311" stroke="white" stroke-opacity="0.04" stroke-width="0.984621"/>
<rect x="843.004" y="130" width="49.2311" height="49.2311" stroke="white" stroke-opacity="0.04" stroke-width="0.984621"/>
<rect x="892.235" y="130" width="49.2311" height="49.2311" stroke="white" stroke-opacity="0.04" stroke-width="0.984621"/>
<rect x="941.466" y="130" width="49.2311" height="49.2311" stroke="white" stroke-opacity="0.04" stroke-width="0.984621"/>
<rect x="990.697" y="130" width="49.2311" height="49.2311" stroke="white" stroke-opacity="0.04" stroke-width="0.984621"/>
<rect x="1039.93" y="130" width="49.2311" height="49.2311" stroke="white" stroke-opacity="0.04" stroke-width="0.984621"/>
<rect x="1089.16" y="130" width="49.2311" height="49.2311" stroke="white" stroke-opacity="0.04" stroke-width="0.984621"/>
<rect x="1138.39" y="130" width="49.2311" height="49.2311" stroke="white" stroke-opacity="0.04" stroke-width="0.984621"/>
<rect x="1187.62" y="130" width="49.2311" height="49.2311" stroke="white" stroke-opacity="0.04" stroke-width="0.984621"/>
<rect x="203" y="179.237" width="49.2311" height="49.2311" stroke="white" stroke-opacity="0.04" stroke-width="0.984621"/>
<rect x="252.231" y="179.237" width="49.2311" height="49.2311" stroke="white" stroke-opacity="0.04" stroke-width="0.984621"/>
<rect x="301.462" y="179.237" width="49.2311" height="49.2311" fill="white" fill-opacity="0.04" stroke="white" stroke-opacity="0.04" stroke-width="0.984621"/>
<rect x="350.693" y="179.237" width="49.2311" height="49.2311" stroke="white" stroke-opacity="0.04" stroke-width="0.984621"/>
<rect x="399.924" y="179.237" width="49.2311" height="49.2311" stroke="white" stroke-opacity="0.04" stroke-width="0.984621"/>
<rect x="449.155" y="179.237" width="49.2311" height="49.2311" stroke="white" stroke-opacity="0.04" stroke-width="0.984621"/>
<rect x="498.386" y="179.237" width="49.2311" height="49.2311" stroke="white" stroke-opacity="0.04" stroke-width="0.984621"/>
<rect x="547.618" y="179.237" width="49.2311" height="49.2311" stroke="white" stroke-opacity="0.04" stroke-width="0.984621"/>
<rect x="596.849" y="179.237" width="49.2311" height="49.2311" stroke="white" stroke-opacity="0.04" stroke-width="0.984621"/>
<rect x="646.08" y="179.237" width="49.2311" height="49.2311" fill="white" fill-opacity="0.04" stroke="white" stroke-opacity="0.04" stroke-width="0.984621"/>
<rect x="695.311" y="179.237" width="49.2311" height="49.2311" stroke="white" stroke-opacity="0.04" stroke-width="0.984621"/>
<rect x="744.542" y="179.237" width="49.2311" height="49.2311" stroke="white" stroke-opacity="0.04" stroke-width="0.984621"/>
<rect x="793.773" y="179.237" width="49.2311" height="49.2311" stroke="white" stroke-opacity="0.04" stroke-width="0.984621"/>
<rect x="843.004" y="179.237" width="49.2311" height="49.2311" stroke="white" stroke-opacity="0.04" stroke-width="0.984621"/>
<rect x="892.235" y="179.237" width="49.2311" height="49.2311" stroke="white" stroke-opacity="0.04" stroke-width="0.984621"/>
<rect x="941.466" y="179.237" width="49.2311" height="49.2311" stroke="white" stroke-opacity="0.04" stroke-width="0.984621"/>
<rect x="990.697" y="179.237" width="49.2311" height="49.2311" stroke="white" stroke-opacity="0.04" stroke-width="0.984621"/>
<rect x="1039.93" y="179.237" width="49.2311" height="49.2311" stroke="white" stroke-opacity="0.04" stroke-width="0.984621"/>
<rect x="1089.16" y="179.237" width="49.2311" height="49.2311" stroke="white" stroke-opacity="0.04" stroke-width="0.984621"/>
<rect x="1138.39" y="179.237" width="49.2311" height="49.2311" stroke="white" stroke-opacity="0.04" stroke-width="0.984621"/>
<rect x="1187.62" y="179.237" width="49.2311" height="49.2311" stroke="white" stroke-opacity="0.04" stroke-width="0.984621"/>
<rect x="203" y="228.459" width="49.2311" height="49.2311" stroke="white" stroke-opacity="0.04" stroke-width="0.984621"/>
<rect x="252.231" y="228.459" width="49.2311" height="49.2311" stroke="white" stroke-opacity="0.04" stroke-width="0.984621"/>
<rect x="301.462" y="228.459" width="49.2311" height="49.2311" stroke="white" stroke-opacity="0.04" stroke-width="0.984621"/>
<rect x="350.693" y="228.459" width="49.2311" height="49.2311" stroke="white" stroke-opacity="0.04" stroke-width="0.984621"/>
<rect x="399.924" y="228.459" width="49.2311" height="49.2311" stroke="white" stroke-opacity="0.04" stroke-width="0.984621"/>
<rect x="449.155" y="228.459" width="49.2311" height="49.2311" stroke="white" stroke-opacity="0.04" stroke-width="0.984621"/>
<rect x="498.386" y="228.459" width="49.2311" height="49.2311" stroke="white" stroke-opacity="0.04" stroke-width="0.984621"/>
<rect x="547.617" y="228.459" width="49.2311" height="49.2311" stroke="white" stroke-opacity="0.04" stroke-width="0.984621"/>
<rect x="596.849" y="228.459" width="49.2311" height="49.2311" stroke="white" stroke-opacity="0.04" stroke-width="0.984621"/>
<rect x="646.08" y="228.459" width="49.2311" height="49.2311" stroke="white" stroke-opacity="0.04" stroke-width="0.984621"/>
<rect x="695.311" y="228.459" width="49.2311" height="49.2311" stroke="white" stroke-opacity="0.04" stroke-width="0.984621"/>
<rect x="744.542" y="228.459" width="49.2311" height="49.2311" stroke="white" stroke-opacity="0.04" stroke-width="0.984621"/>
<rect x="793.773" y="228.459" width="49.2311" height="49.2311" stroke="white" stroke-opacity="0.04" stroke-width="0.984621"/>
<rect x="843.004" y="228.459" width="49.2311" height="49.2311" stroke="white" stroke-opacity="0.04" stroke-width="0.984621"/>
<rect x="892.235" y="228.459" width="49.2311" height="49.2311" stroke="white" stroke-opacity="0.04" stroke-width="0.984621"/>
<rect x="941.466" y="228.459" width="49.2311" height="49.2311" stroke="white" stroke-opacity="0.04" stroke-width="0.984621"/>
<rect x="990.697" y="228.459" width="49.2311" height="49.2311" fill="white" fill-opacity="0.04" stroke="white" stroke-opacity="0.04" stroke-width="0.984621"/>
<rect x="1039.93" y="228.459" width="49.2311" height="49.2311" stroke="white" stroke-opacity="0.04" stroke-width="0.984621"/>
<rect x="1089.16" y="228.459" width="49.2311" height="49.2311" stroke="white" stroke-opacity="0.04" stroke-width="0.984621"/>
<rect x="1138.39" y="228.459" width="49.2311" height="49.2311" stroke="white" stroke-opacity="0.04" stroke-width="0.984621"/>
<rect x="1187.62" y="228.459" width="49.2311" height="49.2311" stroke="white" stroke-opacity="0.04" stroke-width="0.984621"/>
<rect x="203" y="277.696" width="49.2311" height="49.2311" stroke="white" stroke-opacity="0.04" stroke-width="0.984621"/>
<rect x="252.231" y="277.696" width="49.2311" height="49.2311" stroke="white" stroke-opacity="0.04" stroke-width="0.984621"/>
<rect x="301.462" y="277.696" width="49.2311" height="49.2311" stroke="white" stroke-opacity="0.04" stroke-width="0.984621"/>
<rect x="350.693" y="277.696" width="49.2311" height="49.2311" stroke="white" stroke-opacity="0.04" stroke-width="0.984621"/>
<rect x="399.924" y="277.696" width="49.2311" height="49.2311" stroke="white" stroke-opacity="0.04" stroke-width="0.984621"/>
<rect x="449.155" y="277.696" width="49.2311" height="49.2311" stroke="white" stroke-opacity="0.04" stroke-width="0.984621"/>
<rect x="498.386" y="277.696" width="49.2311" height="49.2311" stroke="white" stroke-opacity="0.04" stroke-width="0.984621"/>
<rect x="547.617" y="277.696" width="49.2311" height="49.2311" stroke="white" stroke-opacity="0.04" stroke-width="0.984621"/>
<rect x="596.849" y="277.696" width="49.2311" height="49.2311" stroke="white" stroke-opacity="0.04" stroke-width="0.984621"/>
<rect x="646.08" y="277.696" width="49.2311" height="49.2311" stroke="white" stroke-opacity="0.04" stroke-width="0.984621"/>
<rect x="695.311" y="277.696" width="49.2311" height="49.2311" stroke="white" stroke-opacity="0.04" stroke-width="0.984621"/>
<rect x="744.542" y="277.696" width="49.2311" height="49.2311" stroke="white" stroke-opacity="0.04" stroke-width="0.984621"/>
<rect x="793.773" y="277.696" width="49.2311" height="49.2311" stroke="white" stroke-opacity="0.04" stroke-width="0.984621"/>
<rect x="843.004" y="277.696" width="49.2311" height="49.2311" stroke="white" stroke-opacity="0.04" stroke-width="0.984621"/>
<rect x="892.235" y="277.696" width="49.2311" height="49.2311" stroke="white" stroke-opacity="0.04" stroke-width="0.984621"/>
<rect x="941.466" y="277.696" width="49.2311" height="49.2311" stroke="white" stroke-opacity="0.04" stroke-width="0.984621"/>
<rect x="990.697" y="277.696" width="49.2311" height="49.2311" stroke="white" stroke-opacity="0.04" stroke-width="0.984621"/>
<rect x="1039.93" y="277.696" width="49.2311" height="49.2311" stroke="white" stroke-opacity="0.04" stroke-width="0.984621"/>
<rect x="1089.16" y="277.696" width="49.2311" height="49.2311" stroke="white" stroke-opacity="0.04" stroke-width="0.984621"/>
<rect x="1138.39" y="277.696" width="49.2311" height="49.2311" stroke="white" stroke-opacity="0.04" stroke-width="0.984621"/>
<rect x="1187.62" y="277.696" width="49.2311" height="49.2311" stroke="white" stroke-opacity="0.04" stroke-width="0.984621"/>
<rect x="203" y="326.918" width="49.2311" height="49.2311" stroke="white" stroke-opacity="0.04" stroke-width="0.984621"/>
<rect x="252.231" y="326.918" width="49.2311" height="49.2311" stroke="white" stroke-opacity="0.04" stroke-width="0.984621"/>
<rect x="301.462" y="326.918" width="49.2311" height="49.2311" stroke="white" stroke-opacity="0.04" stroke-width="0.984621"/>
<rect x="350.693" y="326.918" width="49.2311" height="49.2311" fill="white" fill-opacity="0.04" stroke="white" stroke-opacity="0.04" stroke-width="0.984621"/>
<rect x="399.924" y="326.918" width="49.2311" height="49.2311" stroke="white" stroke-opacity="0.04" stroke-width="0.984621"/>
<rect x="449.155" y="326.918" width="49.2311" height="49.2311" stroke="white" stroke-opacity="0.04" stroke-width="0.984621"/>
<rect x="498.386" y="326.918" width="49.2311" height="49.2311" stroke="white" stroke-opacity="0.04" stroke-width="0.984621"/>
<rect x="547.617" y="326.918" width="49.2311" height="49.2311" stroke="white" stroke-opacity="0.04" stroke-width="0.984621"/>
<rect x="596.849" y="326.918" width="49.2311" height="49.2311" stroke="white" stroke-opacity="0.04" stroke-width="0.984621"/>
<rect x="646.08" y="326.918" width="49.2311" height="49.2311" stroke="white" stroke-opacity="0.04" stroke-width="0.984621"/>
<rect x="695.311" y="326.918" width="49.2311" height="49.2311" stroke="white" stroke-opacity="0.04" stroke-width="0.984621"/>
<rect x="744.542" y="326.918" width="49.2311" height="49.2311" stroke="white" stroke-opacity="0.04" stroke-width="0.984621"/>
<rect x="793.773" y="326.918" width="49.2311" height="49.2311" fill="white" fill-opacity="0.04" stroke="white" stroke-opacity="0.04" stroke-width="0.984621"/>
<rect x="843.004" y="326.918" width="49.2311" height="49.2311" stroke="white" stroke-opacity="0.04" stroke-width="0.984621"/>
<rect x="892.235" y="326.918" width="49.2311" height="49.2311" stroke="white" stroke-opacity="0.04" stroke-width="0.984621"/>
<rect x="941.466" y="326.918" width="49.2311" height="49.2311" stroke="white" stroke-opacity="0.04" stroke-width="0.984621"/>
<rect x="990.697" y="326.918" width="49.2311" height="49.2311" stroke="white" stroke-opacity="0.04" stroke-width="0.984621"/>
<rect x="1039.93" y="326.918" width="49.2311" height="49.2311" stroke="white" stroke-opacity="0.04" stroke-width="0.984621"/>
<rect x="1089.16" y="326.918" width="49.2311" height="49.2311" stroke="white" stroke-opacity="0.04" stroke-width="0.984621"/>
<rect x="1138.39" y="326.918" width="49.2311" height="49.2311" stroke="white" stroke-opacity="0.04" stroke-width="0.984621"/>
<rect x="1187.62" y="326.918" width="49.2311" height="49.2311" stroke="white" stroke-opacity="0.04" stroke-width="0.984621"/>
<rect x="203" y="376.155" width="49.2311" height="49.2311" stroke="white" stroke-opacity="0.04" stroke-width="0.984621"/>
<rect x="252.231" y="376.155" width="49.2311" height="49.2311" stroke="white" stroke-opacity="0.04" stroke-width="0.984621"/>
<rect x="301.462" y="376.155" width="49.2311" height="49.2311" stroke="white" stroke-opacity="0.04" stroke-width="0.984621"/>
<rect x="350.693" y="376.155" width="49.2311" height="49.2311" stroke="white" stroke-opacity="0.04" stroke-width="0.984621"/>
<rect x="399.924" y="376.155" width="49.2311" height="49.2311" stroke="white" stroke-opacity="0.04" stroke-width="0.984621"/>
<rect x="449.155" y="376.155" width="49.2311" height="49.2311" stroke="white" stroke-opacity="0.04" stroke-width="0.984621"/>
<rect x="498.386" y="376.155" width="49.2311" height="49.2311" stroke="white" stroke-opacity="0.04" stroke-width="0.984621"/>
<rect x="547.617" y="376.155" width="49.2311" height="49.2311" stroke="white" stroke-opacity="0.04" stroke-width="0.984621"/>
<rect x="596.849" y="376.155" width="49.2311" height="49.2311" stroke="white" stroke-opacity="0.04" stroke-width="0.984621"/>
<rect x="646.08" y="376.155" width="49.2311" height="49.2311" stroke="white" stroke-opacity="0.04" stroke-width="0.984621"/>
<rect x="695.311" y="376.155" width="49.2311" height="49.2311" stroke="white" stroke-opacity="0.04" stroke-width="0.984621"/>
<rect x="744.542" y="376.155" width="49.2311" height="49.2311" stroke="white" stroke-opacity="0.04" stroke-width="0.984621"/>
<rect x="793.773" y="376.155" width="49.2311" height="49.2311" stroke="white" stroke-opacity="0.04" stroke-width="0.984621"/>
<rect x="843.004" y="376.155" width="49.2311" height="49.2311" stroke="white" stroke-opacity="0.04" stroke-width="0.984621"/>
<rect x="892.235" y="376.155" width="49.2311" height="49.2311" stroke="white" stroke-opacity="0.04" stroke-width="0.984621"/>
<rect x="941.466" y="376.155" width="49.2311" height="49.2311" stroke="white" stroke-opacity="0.04" stroke-width="0.984621"/>
<rect x="990.697" y="376.155" width="49.2311" height="49.2311" stroke="white" stroke-opacity="0.04" stroke-width="0.984621"/>
<rect x="1039.93" y="376.155" width="49.2311" height="49.2311" stroke="white" stroke-opacity="0.04" stroke-width="0.984621"/>
<rect x="1089.16" y="376.155" width="49.2311" height="49.2311" fill="white" fill-opacity="0.04" stroke="white" stroke-opacity="0.04" stroke-width="0.984621"/>
<rect x="1138.39" y="376.155" width="49.2311" height="49.2311" stroke="white" stroke-opacity="0.04" stroke-width="0.984621"/>
<rect x="1187.62" y="376.155" width="49.2311" height="49.2311" stroke="white" stroke-opacity="0.04" stroke-width="0.984621"/>
</mask>
<g mask="url(#mask0_120_46)">
<ellipse cx="720" cy="450" rx="517" ry="320" fill="url(#paint0_radial_120_46)"/>
</g>
</g>
<defs>
<filter id="filter0_dddddd_120_46" x="632.205" y="80.2046" width="202.795" height="222.795" filterUnits="userSpaceOnUse" color-interpolation-filters="sRGB">
<feFlood flood-opacity="0" result="BackgroundImageFix"/>
<feColorMatrix in="SourceAlpha" type="matrix" values="0 0 0 0 0 0 0 0 0 0 0 0 0 0 0 0 0 0 127 0" result="hardAlpha"/>
<feOffset dy="2.76726"/>
<feGaussianBlur stdDeviation="1.1069"/>
<feColorMatrix type="matrix" values="0 0 0 0 0.301961 0 0 0 0 0.0196078 0 0 0 0 0.0196078 0 0 0 0.0421718 0"/>
<feBlend mode="normal" in2="BackgroundImageFix" result="effect1_dropShadow_120_46"/>
<feColorMatrix in="SourceAlpha" type="matrix" values="0 0 0 0 0 0 0 0 0 0 0 0 0 0 0 0 0 0 127 0" result="hardAlpha"/>
<feOffset dy="6.6501"/>
<feGaussianBlur stdDeviation="2.66004"/>
<feColorMatrix type="matrix" values="0 0 0 0 0.301961 0 0 0 0 0.0196078 0 0 0 0 0.0196078 0 0 0 0.0605839 0"/>
<feBlend mode="normal" in2="effect1_dropShadow_120_46" result="effect2_dropShadow_120_46"/>
<feColorMatrix in="SourceAlpha" type="matrix" values="0 0 0 0 0 0 0 0 0 0 0 0 0 0 0 0 0 0 127 0" result="hardAlpha"/>
<feOffset dy="12.5216"/>
<feGaussianBlur stdDeviation="5.00862"/>
<feColorMatrix type="matrix" values="0 0 0 0 0.301961 0 0 0 0 0.0196078 0 0 0 0 0.0196078 0 0 0 0.075 0"/>
<feBlend mode="normal" in2="effect2_dropShadow_120_46" result="effect3_dropShadow_120_46"/>
<feColorMatrix in="SourceAlpha" type="matrix" values="0 0 0 0 0 0 0 0 0 0 0 0 0 0 0 0 0 0 127 0" result="hardAlpha"/>
<feOffset dy="22.3363"/>
<feGaussianBlur stdDeviation="8.93452"/>
<feColorMatrix type="matrix" values="0 0 0 0 0.301961 0 0 0 0 0.0196078 0 0 0 0 0.0196078 0 0 0 0.0894161 0"/>
<feBlend mode="normal" in2="effect3_dropShadow_120_46" result="effect4_dropShadow_120_46"/>
<feColorMatrix in="SourceAlpha" type="matrix" values="0 0 0 0 0 0 0 0 0 0 0 0 0 0 0 0 0 0 127 0" result="hardAlpha"/>
<feOffset dy="41.7776"/>
<feGaussianBlur stdDeviation="16.711"/>
<feColorMatrix type="matrix" values="0 0 0 0 0.301961 0 0 0 0 0.0196078 0 0 0 0 0.0196078 0 0 0 0.107828 0"/>
<feBlend mode="normal" in2="effect4_dropShadow_120_46" result="effect5_dropShadow_120_46"/>
<feColorMatrix in="SourceAlpha" type="matrix" values="0 0 0 0 0 0 0 0 0 0 0 0 0 0 0 0 0 0 127 0" result="hardAlpha"/>
<feOffset dy="100"/>
<feGaussianBlur stdDeviation="40"/>
<feColorMatrix type="matrix" values="0 0 0 0 0.301961 0 0 0 0 0.0196078 0 0 0 0 0.0196078 0 0 0 0.15 0"/>
<feBlend mode="normal" in2="effect5_dropShadow_120_46" result="effect6_dropShadow_120_46"/>
<feBlend mode="normal" in="SourceGraphic" in2="effect6_dropShadow_120_46" result="shape"/>
</filter>
<filter id="filter1_dddddd_120_46" x="519.102" y="80.2046" width="202.795" height="222.795" filterUnits="userSpaceOnUse" color-interpolation-filters="sRGB">
<feFlood flood-opacity="0" result="BackgroundImageFix"/>
<feColorMatrix in="SourceAlpha" type="matrix" values="0 0 0 0 0 0 0 0 0 0 0 0 0 0 0 0 0 0 127 0" result="hardAlpha"/>
<feOffset dy="2.76726"/>
<feGaussianBlur stdDeviation="1.1069"/>
<feColorMatrix type="matrix" values="0 0 0 0 0.34902 0 0 0 0 0.0156863 0 0 0 0 0.0156863 0 0 0 0.0393604 0"/>
<feBlend mode="normal" in2="BackgroundImageFix" result="effect1_dropShadow_120_46"/>
<feColorMatrix in="SourceAlpha" type="matrix" values="0 0 0 0 0 0 0 0 0 0 0 0 0 0 0 0 0 0 127 0" result="hardAlpha"/>
<feOffset dy="6.6501"/>
<feGaussianBlur stdDeviation="2.66004"/>
<feColorMatrix type="matrix" values="0 0 0 0 0.34902 0 0 0 0 0.0156863 0 0 0 0 0.0156863 0 0 0 0.056545 0"/>
<feBlend mode="normal" in2="effect1_dropShadow_120_46" result="effect2_dropShadow_120_46"/>
<feColorMatrix in="SourceAlpha" type="matrix" values="0 0 0 0 0 0 0 0 0 0 0 0 0 0 0 0 0 0 127 0" result="hardAlpha"/>
<feOffset dy="12.5216"/>
<feGaussianBlur stdDeviation="5.00862"/>
<feColorMatrix type="matrix" values="0 0 0 0 0.34902 0 0 0 0 0.0156863 0 0 0 0 0.0156863 0 0 0 0.07 0"/>
<feBlend mode="normal" in2="effect2_dropShadow_120_46" result="effect3_dropShadow_120_46"/>
<feColorMatrix in="SourceAlpha" type="matrix" values="0 0 0 0 0 0 0 0 0 0 0 0 0 0 0 0 0 0 127 0" result="hardAlpha"/>
<feOffset dy="22.3363"/>
<feGaussianBlur stdDeviation="8.93452"/>
<feColorMatrix type="matrix" values="0 0 0 0 0.34902 0 0 0 0 0.0156863 0 0 0 0 0.0156863 0 0 0 0.083455 0"/>
<feBlend mode="normal" in2="effect3_dropShadow_120_46" result="effect4_dropShadow_120_46"/>
<feColorMatrix in="SourceAlpha" type="matrix" values="0 0 0 0 0 0 0 0 0 0 0 0 0 0 0 0 0 0 127 0" result="hardAlpha"/>
<feOffset dy="41.7776"/>
<feGaussianBlur stdDeviation="16.711"/>
<feColorMatrix type="matrix" values="0 0 0 0 0.34902 0 0 0 0 0.0156863 0 0 0 0 0.0156863 0 0 0 0.10064 0"/>
<feBlend mode="normal" in2="effect4_dropShadow_120_46" result="effect5_dropShadow_120_46"/>
<feColorMatrix in="SourceAlpha" type="matrix" values="0 0 0 0 0 0 0 0 0 0 0 0 0 0 0 0 0 0 127 0" result="hardAlpha"/>
<feOffset dy="100"/>
<feGaussianBlur stdDeviation="40"/>
<feColorMatrix type="matrix" values="0 0 0 0 0.34902 0 0 0 0 0.0156863 0 0 0 0 0.0156863 0 0 0 0.14 0"/>
<feBlend mode="normal" in2="effect5_dropShadow_120_46" result="effect6_dropShadow_120_46"/>
<feBlend mode="normal" in="SourceGraphic" in2="effect6_dropShadow_120_46" result="shape"/>
</filter>
<filter id="filter2_dddddd_120_46" x="575.653" y="80.2046" width="202.795" height="222.795" filterUnits="userSpaceOnUse" color-interpolation-filters="sRGB">
<feFlood flood-opacity="0" result="BackgroundImageFix"/>
<feColorMatrix in="SourceAlpha" type="matrix" values="0 0 0 0 0 0 0 0 0 0 0 0 0 0 0 0 0 0 127 0" result="hardAlpha"/>
<feOffset dy="2.76726"/>
<feGaussianBlur stdDeviation="1.1069"/>
<feColorMatrix type="matrix" values="0 0 0 0 0.34902 0 0 0 0 0.0156863 0 0 0 0 0.0156863 0 0 0 0.0393604 0"/>
<feBlend mode="normal" in2="BackgroundImageFix" result="effect1_dropShadow_120_46"/>
<feColorMatrix in="SourceAlpha" type="matrix" values="0 0 0 0 0 0 0 0 0 0 0 0 0 0 0 0 0 0 127 0" result="hardAlpha"/>
<feOffset dy="6.6501"/>
<feGaussianBlur stdDeviation="2.66004"/>
<feColorMatrix type="matrix" values="0 0 0 0 0.34902 0 0 0 0 0.0156863 0 0 0 0 0.0156863 0 0 0 0.056545 0"/>
<feBlend mode="normal" in2="effect1_dropShadow_120_46" result="effect2_dropShadow_120_46"/>
<feColorMatrix in="SourceAlpha" type="matrix" values="0 0 0 0 0 0 0 0 0 0 0 0 0 0 0 0 0 0 127 0" result="hardAlpha"/>
<feOffset dy="12.5216"/>
<feGaussianBlur stdDeviation="5.00862"/>
<feColorMatrix type="matrix" values="0 0 0 0 0.34902 0 0 0 0 0.0156863 0 0 0 0 0.0156863 0 0 0 0.07 0"/>
<feBlend mode="normal" in2="effect2_dropShadow_120_46" result="effect3_dropShadow_120_46"/>
<feColorMatrix in="SourceAlpha" type="matrix" values="0 0 0 0 0 0 0 0 0 0 0 0 0 0 0 0 0 0 127 0" result="hardAlpha"/>
<feOffset dy="22.3363"/>
<feGaussianBlur stdDeviation="8.93452"/>
<feColorMatrix type="matrix" values="0 0 0 0 0.34902 0 0 0 0 0.0156863 0 0 0 0 0.0156863 0 0 0 0.083455 0"/>
<feBlend mode="normal" in2="effect3_dropShadow_120_46" result="effect4_dropShadow_120_46"/>
<feColorMatrix in="SourceAlpha" type="matrix" values="0 0 0 0 0 0 0 0 0 0 0 0 0 0 0 0 0 0 127 0" result="hardAlpha"/>
<feOffset dy="41.7776"/>
<feGaussianBlur stdDeviation="16.711"/>
<feColorMatrix type="matrix" values="0 0 0 0 0.34902 0 0 0 0 0.0156863 0 0 0 0 0.0156863 0 0 0 0.10064 0"/>
<feBlend mode="normal" in2="effect4_dropShadow_120_46" result="effect5_dropShadow_120_46"/>
<feColorMatrix in="SourceAlpha" type="matrix" values="0 0 0 0 0 0 0 0 0 0 0 0 0 0 0 0 0 0 127 0" result="hardAlpha"/>
<feOffset dy="100"/>
<feGaussianBlur stdDeviation="40"/>
<feColorMatrix type="matrix" values="0 0 0 0 0.34902 0 0 0 0 0.0156863 0 0 0 0 0.0156863 0 0 0 0.14 0"/>
<feBlend mode="normal" in2="effect5_dropShadow_120_46" result="effect6_dropShadow_120_46"/>
<feBlend mode="normal" in="SourceGraphic" in2="effect6_dropShadow_120_46" result="shape"/>
</filter>
<filter id="filter3_dddddd_120_46" x="406" y="80.2046" width="202.795" height="222.795" filterUnits="userSpaceOnUse" color-interpolation-filters="sRGB">
<feFlood flood-opacity="0" result="BackgroundImageFix"/>
<feColorMatrix in="SourceAlpha" type="matrix" values="0 0 0 0 0 0 0 0 0 0 0 0 0 0 0 0 0 0 127 0" result="hardAlpha"/>
<feOffset dy="2.76726"/>
<feGaussianBlur stdDeviation="1.1069"/>
<feColorMatrix type="matrix" values="0 0 0 0 0.301961 0 0 0 0 0.0196078 0 0 0 0 0.0196078 0 0 0 0.0421718 0"/>
<feBlend mode="normal" in2="BackgroundImageFix" result="effect1_dropShadow_120_46"/>
<feColorMatrix in="SourceAlpha" type="matrix" values="0 0 0 0 0 0 0 0 0 0 0 0 0 0 0 0 0 0 127 0" result="hardAlpha"/>
<feOffset dy="6.6501"/>
<feGaussianBlur stdDeviation="2.66004"/>
<feColorMatrix type="matrix" values="0 0 0 0 0.301961 0 0 0 0 0.0196078 0 0 0 0 0.0196078 0 0 0 0.0605839 0"/>
<feBlend mode="normal" in2="effect1_dropShadow_120_46" result="effect2_dropShadow_120_46"/>
<feColorMatrix in="SourceAlpha" type="matrix" values="0 0 0 0 0 0 0 0 0 0 0 0 0 0 0 0 0 0 127 0" result="hardAlpha"/>
<feOffset dy="12.5216"/>
<feGaussianBlur stdDeviation="5.00862"/>
<feColorMatrix type="matrix" values="0 0 0 0 0.301961 0 0 0 0 0.0196078 0 0 0 0 0.0196078 0 0 0 0.075 0"/>
<feBlend mode="normal" in2="effect2_dropShadow_120_46" result="effect3_dropShadow_120_46"/>
<feColorMatrix in="SourceAlpha" type="matrix" values="0 0 0 0 0 0 0 0 0 0 0 0 0 0 0 0 0 0 127 0" result="hardAlpha"/>
<feOffset dy="22.3363"/>
<feGaussianBlur stdDeviation="8.93452"/>
<feColorMatrix type="matrix" values="0 0 0 0 0.301961 0 0 0 0 0.0196078 0 0 0 0 0.0196078 0 0 0 0.0894161 0"/>
<feBlend mode="normal" in2="effect3_dropShadow_120_46" result="effect4_dropShadow_120_46"/>
<feColorMatrix in="SourceAlpha" type="matrix" values="0 0 0 0 0 0 0 0 0 0 0 0 0 0 0 0 0 0 127 0" result="hardAlpha"/>
<feOffset dy="41.7776"/>
<feGaussianBlur stdDeviation="16.711"/>
<feColorMatrix type="matrix" values="0 0 0 0 0.301961 0 0 0 0 0.0196078 0 0 0 0 0.0196078 0 0 0 0.107828 0"/>
<feBlend mode="normal" in2="effect4_dropShadow_120_46" result="effect5_dropShadow_120_46"/>
<feColorMatrix in="SourceAlpha" type="matrix" values="0 0 0 0 0 0 0 0 0 0 0 0 0 0 0 0 0 0 127 0" result="hardAlpha"/>
<feOffset dy="100"/>
<feGaussianBlur stdDeviation="40"/>
<feColorMatrix type="matrix" values="0 0 0 0 0.301961 0 0 0 0 0.0196078 0 0 0 0 0.0196078 0 0 0 0.15 0"/>
<feBlend mode="normal" in2="effect5_dropShadow_120_46" result="effect6_dropShadow_120_46"/>
<feBlend mode="normal" in="SourceGraphic" in2="effect6_dropShadow_120_46" result="shape"/>
</filter>
<filter id="filter4_dddddd_120_46" x="462.551" y="80.2046" width="202.795" height="222.795" filterUnits="userSpaceOnUse" color-interpolation-filters="sRGB">
<feFlood flood-opacity="0" result="BackgroundImageFix"/>
<feColorMatrix in="SourceAlpha" type="matrix" values="0 0 0 0 0 0 0 0 0 0 0 0 0 0 0 0 0 0 127 0" result="hardAlpha"/>
<feOffset dy="2.76726"/>
<feGaussianBlur stdDeviation="1.1069"/>
<feColorMatrix type="matrix" values="0 0 0 0 0.301961 0 0 0 0 0.0196078 0 0 0 0 0.0196078 0 0 0 0.0421718 0"/>
<feBlend mode="normal" in2="BackgroundImageFix" result="effect1_dropShadow_120_46"/>
<feColorMatrix in="SourceAlpha" type="matrix" values="0 0 0 0 0 0 0 0 0 0 0 0 0 0 0 0 0 0 127 0" result="hardAlpha"/>
<feOffset dy="6.6501"/>
<feGaussianBlur stdDeviation="2.66004"/>
<feColorMatrix type="matrix" values="0 0 0 0 0.301961 0 0 0 0 0.0196078 0 0 0 0 0.0196078 0 0 0 0.0605839 0"/>
<feBlend mode="normal" in2="effect1_dropShadow_120_46" result="effect2_dropShadow_120_46"/>
<feColorMatrix in="SourceAlpha" type="matrix" values="0 0 0 0 0 0 0 0 0 0 0 0 0 0 0 0 0 0 127 0" result="hardAlpha"/>
<feOffset dy="12.5216"/>
<feGaussianBlur stdDeviation="5.00862"/>
<feColorMatrix type="matrix" values="0 0 0 0 0.301961 0 0 0 0 0.0196078 0 0 0 0 0.0196078 0 0 0 0.075 0"/>
<feBlend mode="normal" in2="effect2_dropShadow_120_46" result="effect3_dropShadow_120_46"/>
<feColorMatrix in="SourceAlpha" type="matrix" values="0 0 0 0 0 0 0 0 0 0 0 0 0 0 0 0 0 0 127 0" result="hardAlpha"/>
<feOffset dy="22.3363"/>
<feGaussianBlur stdDeviation="8.93452"/>
<feColorMatrix type="matrix" values="0 0 0 0 0.301961 0 0 0 0 0.0196078 0 0 0 0 0.0196078 0 0 0 0.0894161 0"/>
<feBlend mode="normal" in2="effect3_dropShadow_120_46" result="effect4_dropShadow_120_46"/>
<feColorMatrix in="SourceAlpha" type="matrix" values="0 0 0 0 0 0 0 0 0 0 0 0 0 0 0 0 0 0 127 0" result="hardAlpha"/>
<feOffset dy="41.7776"/>
<feGaussianBlur stdDeviation="16.711"/>
<feColorMatrix type="matrix" values="0 0 0 0 0.301961 0 0 0 0 0.0196078 0 0 0 0 0.0196078 0 0 0 0.107828 0"/>
<feBlend mode="normal" in2="effect4_dropShadow_120_46" result="effect5_dropShadow_120_46"/>
<feColorMatrix in="SourceAlpha" type="matrix" values="0 0 0 0 0 0 0 0 0 0 0 0 0 0 0 0 0 0 127 0" result="hardAlpha"/>
<feOffset dy="100"/>
<feGaussianBlur stdDeviation="40"/>
<feColorMatrix type="matrix" values="0 0 0 0 0.301961 0 0 0 0 0.0196078 0 0 0 0 0.0196078 0 0 0 0.15 0"/>
<feBlend mode="normal" in2="effect5_dropShadow_120_46" result="effect6_dropShadow_120_46"/>
<feBlend mode="normal" in="SourceGraphic" in2="effect6_dropShadow_120_46" result="shape"/>
</filter>
<radialGradient id="paint0_radial_120_46" cx="0" cy="0" r="1" gradientUnits="userSpaceOnUse" gradientTransform="translate(720 450) rotate(90) scale(320 517)">
<stop stop-color="#FF5C00"/>
<stop offset="1" stop-color="#FF5C00"/>
</radialGradient>
<clipPath id="clip0_120_46">
<rect width="1584" height="396" fill="white"/>
</clipPath>
<clipPath id="clip1_120_46">
<rect width="15.9111" height="24.141" fill="white" transform="translate(725.921 89.5318)"/>
</clipPath>
<clipPath id="clip2_120_46">
<rect width="25.2383" height="20.8491" fill="white" transform="translate(664.432 91.1778)"/>
</clipPath>
<clipPath id="clip3_120_46">
<rect width="21.3977" height="21.3977" fill="white" transform="translate(496.699 90.9034)"/>
</clipPath>
<clipPath id="clip4_120_46">
<rect width="21.3977" height="21.3977" fill="white" transform="translate(553.25 90.9034)"/>
</clipPath>
</defs>
</svg>
